<?xml version="1.0" standalone="no"?>
<!DOCTYPE svg PUBLIC "-//W3C//DTD SVG 20010904//EN"
 "http://www.w3.org/TR/2001/REC-SVG-20010904/DTD/svg10.dtd">
<svg version="1.0" xmlns="http://www.w3.org/2000/svg"
 width="1196.000000pt" height="1500.000000pt" viewBox="0 0 1196.000000 1500.000000"
 preserveAspectRatio="xMidYMid meet">
<metadata>
Created by potrace 1.16, written by Peter Selinger 2001-2019
</metadata>
<g transform="translate(0.000000,1500.000000) scale(0.100000,-0.100000)"
fill="#000000" stroke="none">
<path d="M7277 14912 c-32 -45 -246 -229 -354 -305 -150 -105 -365 -200 -733
-323 -169 -57 -361 -148 -443 -211 -88 -67 -221 -203 -303 -307 -42 -54 -70
-82 -72 -73 -6 28 46 157 98 249 36 62 51 97 47 114 -3 20 9 35 82 95 118 98
191 169 191 187 0 12 -8 13 -42 8 -24 -4 -104 -11 -178 -15 -140 -9 -202 -23
-388 -90 -301 -109 -584 -328 -781 -605 -85 -120 -217 -363 -255 -471 -6 -16
-16 -3 -49 65 -60 121 -119 204 -206 290 -84 83 -137 114 -315 185 -129 51
-552 175 -597 175 -58 0 -45 -25 43 -84 57 -38 140 -131 193 -216 50 -80 124
-235 133 -280 23 -107 25 -321 3 -320 -3 1 -26 26 -51 56 -67 83 -247 258
-313 304 -31 23 -88 54 -126 70 -119 48 -168 55 -361 50 -334 -9 -419 -6 -480
18 -53 21 -90 28 -90 17 0 -10 82 -168 108 -209 14 -23 72 -102 127 -176 197
-263 229 -322 274 -501 27 -109 48 -239 38 -239 -2 0 -37 50 -77 110 -49 75
-79 110 -91 110 -11 0 -19 -6 -20 -12 -4 -51 4 -203 17 -302 8 -65 13 -121 10
-124 -3 -2 -46 18 -96 47 -49 28 -94 51 -100 51 -14 0 -100 87 -130 132 -44
66 -62 39 -40 -57 14 -62 40 -265 50 -396 10 -135 26 -175 99 -252 65 -69 153
-187 148 -201 -3 -7 -33 -10 -93 -8 -99 4 -286 -12 -414 -34 -163 -29 -310
-116 -590 -348 -186 -154 -370 -351 -386 -414 -11 -40 8 -45 82 -24 76 23 317
76 406 89 l57 9 -5 -26 c-7 -32 21 -47 104 -56 131 -13 412 -77 412 -93 0 -4
-26 -15 -57 -25 -32 -10 -114 -48 -183 -84 -104 -56 -139 -80 -205 -147 -83
-83 -216 -256 -255 -335 -24 -47 -145 -224 -240 -350 -66 -88 -73 -102 -60
-135 7 -18 17 -25 35 -25 43 0 28 -16 -42 -45 -38 -16 -99 -44 -138 -63 -132
-65 -291 -95 -497 -93 -84 0 -138 -3 -138 -9 0 -38 113 -267 168 -339 95 -127
272 -249 577 -397 162 -79 174 -89 115 -96 -38 -5 -30 -30 18 -56 24 -13 42
-26 40 -27 -2 -2 -43 -6 -93 -10 -49 -3 -104 -8 -120 -11 -17 -3 -81 2 -142
11 -159 23 -188 2 -120 -87 101 -132 472 -351 715 -421 46 -13 83 -27 83 -31
0 -4 -33 -24 -73 -45 -180 -91 -424 -318 -552 -514 -102 -156 -146 -238 -146
-270 0 -48 1 -48 219 121 45 35 85 61 88 58 3 -3 -10 -36 -29 -73 -35 -66 -80
-206 -93 -288 -3 -22 -15 -78 -26 -124 -17 -69 -18 -92 -9 -133 26 -125 255
-558 294 -558 32 0 46 41 46 137 0 92 13 218 30 283 8 31 22 43 102 90 50 30
114 72 140 93 27 21 54 37 61 34 17 -5 -94 -119 -183 -187 -104 -80 -126 -105
-110 -125 9 -11 33 -15 97 -15 113 0 212 22 340 75 58 25 108 44 109 42 2 -2
-17 -55 -42 -118 -65 -163 -87 -250 -87 -344 -1 -106 16 -153 130 -362 72
-132 104 -204 140 -312 36 -111 49 -141 63 -141 16 0 18 13 22 108 7 158 62
289 179 416 48 53 164 140 179 134 4 -2 38 -43 76 -93 37 -49 126 -161 198
-248 72 -88 158 -192 191 -232 174 -211 216 -246 321 -272 56 -14 77 -15 142
-5 54 9 78 9 82 1 4 -6 26 -67 49 -135 51 -150 81 -299 81 -397 0 -50 5 -79
15 -93 15 -18 18 -17 71 41 31 33 78 93 105 133 27 39 51 72 54 72 2 0 16 -39
30 -88 32 -103 85 -221 108 -241 15 -12 20 -8 41 40 24 55 61 98 73 86 7 -8
93 -237 130 -347 29 -87 59 -243 67 -351 l7 -76 -51 -26 c-67 -35 -233 -153
-406 -289 l-61 -48 -48 138 c-67 195 -108 278 -148 299 -45 24 -160 22 -220
-5 -53 -24 -64 -42 -102 -171 -15 -52 -50 -146 -77 -210 -46 -107 -108 -320
-123 -423 -7 -48 45 -369 96 -593 16 -71 45 -200 64 -285 19 -85 46 -204 60
-264 14 -60 24 -110 23 -112 -2 -1 -60 -35 -128 -75 -323 -186 -592 -409 -787
-650 -133 -163 -260 -382 -283 -484 -15 -66 0 -78 90 -72 36 3 432 11 880 18
889 14 972 11 1029 -36 195 -160 461 -228 896 -228 226 -1 358 10 527 43 180
36 232 53 412 133 202 90 266 105 566 132 91 8 226 22 301 30 75 8 201 19 280
25 79 6 230 21 334 34 256 33 674 63 1200 86 132 6 357 18 500 26 168 10 521
18 995 21 631 5 775 3 1020 -12 242 -15 345 -16 680 -9 l395 9 3 135 c8 352
-45 533 -222 752 -48 59 -124 141 -170 183 -75 69 -85 82 -99 135 -33 116
-109 253 -198 354 -40 45 -118 104 -207 156 -37 22 -46 35 -69 95 -37 98 -35
169 2 131 22 -22 48 -20 70 4 14 16 16 29 11 68 -5 38 -1 65 19 123 14 41 25
82 25 92 0 9 -18 37 -40 61 -28 30 -48 66 -63 113 -33 100 -72 162 -112 179
-43 18 -83 10 -168 -32 -74 -37 -105 -35 -127 7 -12 22 -16 112 -5 129 4 6 1
26 -5 45 -26 77 -266 173 -308 122 -6 -7 -16 -34 -21 -59 -13 -57 -31 -98 -44
-98 -20 0 -65 34 -81 62 -17 28 -17 30 8 73 14 24 26 53 26 64 0 26 -35 52
-115 86 l-65 28 -76 -39 c-73 -37 -82 -39 -168 -39 l-91 0 -128 73 c-70 41
-155 83 -188 95 l-60 20 6 156 c6 146 -4 323 -19 339 -4 3 -14 2 -23 -4 -13
-8 -34 0 -92 33 -90 52 -302 123 -364 123 -34 0 -48 5 -58 21 -10 14 -20 18
-33 13 -18 -7 -149 -196 -161 -233 -4 -13 -24 -23 -73 -34 -273 -65 -372 -90
-477 -125 -66 -22 -121 -39 -121 -38 -1 0 2 69 6 151 5 83 9 288 9 458 1 169
3 307 6 307 3 0 32 -13 65 -30 99 -50 97 -52 102 107 3 76 9 146 13 156 12 28
58 46 137 53 111 10 146 33 289 186 183 195 228 253 382 488 80 121 160 230
169 230 4 0 8 -57 8 -128 0 -99 3 -132 16 -150 8 -12 21 -22 27 -22 42 0 125
236 167 475 12 65 23 121 24 123 2 2 27 -8 56 -23 87 -44 221 -88 233 -76 8 8
4 18 -13 36 -28 30 -22 31 28 6 93 -46 182 -61 182 -29 0 6 -27 53 -61 105
-124 192 -210 406 -234 581 -6 49 -5 54 11 50 23 -4 151 -162 190 -234 18 -34
36 -54 47 -54 23 0 22 19 -9 124 -14 48 -24 92 -22 98 7 21 111 -76 181 -170
40 -53 80 -98 88 -100 13 -2 17 12 22 74 22 259 0 381 -119 651 -76 173 -76
173 -27 173 78 0 373 121 419 171 21 24 14 24 -64 -1 -35 -11 -80 -20 -100
-20 -75 0 -238 96 -334 198 -69 72 -73 87 -20 78 183 -32 243 -37 337 -31 272
18 532 102 653 210 85 76 68 90 -66 56 -55 -15 -95 -18 -160 -15 -163 9 -288
61 -437 181 -152 123 -323 308 -303 328 2 2 34 10 71 17 70 13 85 30 52 58
-26 21 -17 28 54 44 89 20 259 21 334 1 124 -32 349 -163 579 -336 113 -86
122 -91 135 -74 19 27 18 32 -33 136 -47 97 -67 155 -128 373 -42 150 -87 240
-165 333 -68 81 -213 210 -338 301 -51 36 -93 71 -93 76 0 14 215 -1 337 -25
129 -25 345 -107 409 -155 50 -39 64 -42 64 -15 0 22 -142 160 -245 236 -96
72 -295 180 -407 220 -51 18 -137 42 -191 53 -93 19 -116 27 -106 36 2 2 37
26 77 53 87 60 262 219 262 238 0 28 -21 24 -131 -29 -63 -30 -138 -59 -167
-65 -66 -14 -132 -14 -132 -1 0 5 18 21 40 35 312 197 629 439 749 571 25 27
86 94 136 149 51 55 114 125 141 156 27 31 61 64 76 75 32 22 34 29 13 38 -9
3 -78 -32 -168 -85 -97 -57 -181 -99 -232 -115 -116 -37 -283 -63 -452 -70
-128 -5 -174 -3 -338 20 -188 25 -313 53 -364 81 -22 12 -23 14 -6 15 11 0 83
-11 160 -25 314 -55 335 -57 335 -30 0 22 -261 280 -320 317 -30 19 -83 50
-117 68 -35 18 -63 36 -63 40 0 4 19 12 43 19 116 34 235 109 350 219 83 81
59 93 -62 32 -76 -39 -276 -110 -307 -110 -27 0 -14 15 39 43 48 25 529 364
601 423 107 89 236 238 236 274 0 10 -13 23 -30 30 -26 11 -37 10 -82 -9 -73
-30 -249 -71 -305 -71 -72 0 -214 34 -343 80 -146 53 -395 124 -501 145 -98
18 -265 19 -374 1 -44 -8 -81 -12 -83 -11 -1 1 27 32 63 68 105 105 81 143
-52 83 -43 -19 -105 -39 -137 -45 -71 -13 -186 -15 -186 -3 0 12 219 123 310
157 60 23 97 30 184 35 72 3 111 9 113 17 3 7 -30 31 -71 55 -41 24 -75 45
-75 48 0 3 33 29 72 57 101 74 317 288 350 347 15 27 26 51 24 53 -2 2 -50 -2
-107 -8 -64 -7 -207 -9 -374 -6 -297 5 -545 31 -786 83 -93 20 -156 27 -245
28 -117 1 -123 0 -245 -43 -69 -23 -193 -72 -277 -107 -84 -35 -155 -64 -158
-64 -18 0 9 28 124 128 216 189 281 231 467 297 127 45 149 57 152 81 2 17 -6
24 -49 37 -28 9 -72 17 -98 17 -94 0 -268 -22 -370 -46 -57 -13 -105 -23 -107
-22 -1 2 2 23 6 48 15 77 12 186 -5 200 -19 16 -14 21 -109 -107 -41 -56 -92
-121 -113 -144 -44 -49 -333 -282 -340 -275 -6 6 32 74 97 171 51 76 81 130
158 276 236 451 273 534 316 722 34 143 54 327 36 327 -4 0 -24 -22 -43 -48z
m-217 -310 c0 -16 -166 -212 -268 -316 -204 -208 -375 -342 -562 -439 -345
-180 -596 -330 -713 -425 -90 -73 -145 -136 -222 -251 -80 -123 -133 -233
-191 -407 -26 -77 -51 -143 -57 -149 -6 -6 -7 52 -4 165 5 176 26 324 76 533
23 97 26 127 12 127 -19 0 -144 -194 -182 -281 -59 -136 -118 -343 -144 -503
-4 -21 -10 -35 -14 -30 -12 14 -32 272 -33 439 -1 137 1 158 25 238 73 238
218 561 300 667 52 66 148 141 271 209 120 67 323 120 236 62 -82 -55 -194
-166 -274 -275 -38 -50 -106 -175 -106 -193 0 -27 31 -26 60 2 l30 28 -8 -69
c-4 -38 -7 -103 -7 -144 0 -70 2 -75 22 -78 26 -4 55 23 148 138 125 157 304
323 439 409 88 55 353 162 596 241 183 59 386 167 524 279 41 33 46 35 46 23z
m730 -851 c0 -5 -42 -19 -92 -31 -159 -38 -278 -110 -454 -274 -45 -41 -84
-73 -86 -70 -3 2 13 50 36 107 l42 102 57 28 c92 46 257 105 338 121 136 27
159 30 159 17z m-660 -56 c0 -3 -18 -36 -41 -73 -54 -89 -131 -182 -264 -321
-96 -99 -133 -129 -285 -229 -263 -173 -335 -235 -484 -422 -118 -146 -141
-182 -165 -253 -18 -52 -71 -392 -71 -456 0 -19 16 -42 56 -81 60 -60 99 -114
90 -129 -3 -4 -33 -14 -66 -22 -33 -7 -60 -17 -60 -22 0 -10 108 -143 137
-169 10 -10 75 -33 143 -52 69 -19 159 -47 201 -61 l76 -27 13 -52 c42 -169
119 -366 244 -629 42 -87 76 -163 76 -169 0 -5 -6 -8 -14 -5 -8 3 -150 124
-316 269 -166 145 -306 263 -313 263 -6 0 -14 -10 -17 -22 -3 -13 -9 -19 -16
-15 -19 13 -127 162 -121 168 3 3 26 -8 51 -25 46 -32 66 -38 66 -21 0 5 -40
89 -89 187 -71 141 -102 192 -149 243 l-59 64 -58 -14 c-37 -9 -96 -37 -164
-80 -58 -36 -140 -87 -183 -113 -87 -54 -131 -100 -159 -165 -24 -55 -30 -47
107 -139 90 -60 258 -205 352 -303 47 -50 147 -201 194 -293 57 -114 78 -208
79 -347 0 -176 -47 -494 -117 -785 -21 -88 -27 -143 -31 -279 -5 -150 6 -339
24 -415 4 -16 2 -22 -7 -19 -30 10 -355 633 -395 759 -38 118 -47 294 -34 689
13 426 5 493 -81 745 -46 132 -86 218 -136 288 -40 55 -42 48 52 192 30 46 64
106 76 132 25 56 118 228 160 295 22 35 42 53 79 69 27 13 49 28 49 35 0 24
-50 126 -86 177 -38 52 -109 243 -95 252 5 2 30 -22 55 -55 37 -47 69 -73 144
-117 53 -31 114 -71 135 -90 42 -38 68 -43 60 -13 -3 11 2 68 10 128 9 59 19
134 22 167 8 76 63 242 114 344 65 130 172 282 243 342 92 80 239 174 537 344
160 92 183 109 295 217 110 107 136 128 136 113z m-3774 -147 c39 -40 84 -91
101 -113 35 -47 206 -376 218 -420 5 -16 9 -82 10 -145 1 -102 5 -126 34 -208
18 -52 30 -96 27 -99 -2 -3 -21 7 -41 22 -19 15 -39 25 -42 21 -4 -4 58 -71
137 -149 80 -78 216 -211 303 -297 l158 -155 -123 -7 c-68 -3 -139 -11 -158
-17 -19 -6 -77 -18 -129 -26 -74 -12 -102 -13 -130 -4 -77 25 -196 93 -246
140 -29 27 -57 49 -63 49 -15 0 -5 -71 25 -168 21 -69 39 -101 106 -190 129
-172 168 -241 191 -335 l7 -29 -28 20 c-44 32 -272 229 -341 296 -35 33 -82
87 -104 120 -69 100 -83 150 -113 386 -29 241 -55 333 -124 449 -97 164 -282
310 -526 415 -177 77 -337 156 -393 195 -54 38 -89 77 -79 87 3 3 36 0 73 -7
49 -9 112 -9 219 -3 292 17 383 8 498 -50 179 -91 318 -213 469 -413 111 -147
132 -160 134 -83 0 25 6 77 12 115 14 86 15 205 2 265 -27 120 -86 277 -127
338 -24 36 -43 66 -43 68 0 14 25 -5 86 -68z m4804 -207 c41 -11 113 -27 160
-35 92 -16 665 -51 706 -43 49 9 22 -15 -58 -53 -125 -58 -228 -88 -362 -106
-161 -21 -663 -34 -836 -22 -96 7 -148 7 -177 -1 -76 -21 -613 -430 -613 -467
0 -11 19 -14 90 -14 103 0 460 -24 595 -40 87 -11 175 -35 175 -48 0 -9 -56
-53 -105 -82 -22 -13 -62 -42 -90 -65 -27 -22 -93 -73 -145 -112 -98 -74 -107
-82 -225 -192 -39 -36 -123 -115 -188 -174 -147 -137 -151 -145 -151 -387 l-1
-165 38 -74 c54 -104 197 -250 312 -318 118 -70 317 -150 409 -165 87 -13 87
-22 2 -65 -144 -73 -228 -85 -407 -58 l-102 15 -78 66 c-74 61 -92 84 -69 84
5 0 72 -14 150 -31 77 -16 144 -27 150 -24 18 11 10 34 -17 52 -61 39 -168
129 -244 206 -158 160 -209 235 -252 372 -8 28 -38 120 -65 205 -27 85 -61
195 -76 243 -40 130 -73 158 -261 222 -16 6 -5 12 46 30 37 13 77 30 90 38 13
9 47 21 74 27 97 21 295 108 295 130 0 3 -71 5 -158 5 -203 0 -240 7 -294 52
-40 33 -46 35 -103 31 -48 -3 -74 -12 -130 -45 -127 -75 -98 -40 100 120 55
45 132 108 170 142 39 33 93 78 120 100 27 22 67 58 90 80 176 176 382 330
520 387 33 14 135 60 227 102 92 43 196 84 230 91 95 22 359 14 458 -14z m560
-780 c0 -16 -49 -46 -207 -125 -147 -73 -177 -97 -138 -112 8 -4 43 5 77 19
79 31 248 70 397 93 159 24 238 16 387 -36 65 -23 166 -54 224 -70 58 -15 148
-39 200 -54 215 -58 502 -84 590 -52 80 28 82 14 8 -39 -91 -66 -202 -104
-498 -170 -91 -20 -206 -50 -255 -66 -50 -16 -96 -29 -103 -29 -29 0 21 116
65 150 15 12 47 39 71 62 64 61 38 75 -66 37 -31 -12 -121 -39 -200 -59 -79
-21 -144 -40 -146 -42 -1 -1 -37 -93 -80 -203 -43 -110 -103 -247 -133 -305
l-55 -105 43 -39 c24 -21 71 -52 104 -70 l60 -31 232 0 c127 0 234 -3 238 -7
4 -3 -26 -16 -67 -29 -40 -12 -100 -30 -132 -40 -33 -11 -72 -19 -86 -19 -38
0 -90 -20 -90 -34 0 -22 214 -150 360 -215 108 -48 192 -73 358 -107 l132 -26
153 21 c164 23 257 27 257 11 0 -5 -1 -10 -2 -10 -150 -13 -243 -32 -317 -64
-100 -44 -259 -100 -479 -168 l-163 -51 -42 22 c-23 13 -152 79 -287 149 -135
69 -246 126 -248 127 -2 2 15 40 36 86 39 84 82 206 82 231 -1 10 -165 145
-191 156 -4 2 -30 -34 -57 -80 -28 -46 -74 -115 -104 -153 -171 -227 -161
-216 -188 -210 -14 3 -119 51 -235 106 -211 102 -352 162 -500 214 -44 16 -84
32 -88 36 -11 8 51 16 198 24 195 11 348 53 600 162 314 137 426 221 489 368
32 75 62 205 47 205 -3 0 -42 -14 -86 -31 -101 -39 -211 -49 -300 -25 -35 9
-111 16 -180 18 -134 2 -138 1 -276 -88 -39 -25 -73 -43 -76 -40 -3 3 32 41
78 83 147 136 156 147 136 151 -17 3 -89 -39 -340 -201 -59 -38 -110 -67 -113
-64 -8 7 71 161 123 239 24 37 79 98 121 135 42 37 79 71 82 74 13 16 146 101
218 139 81 43 104 70 60 70 -13 0 -66 -11 -118 -25 -52 -14 -98 -25 -102 -25
-18 0 -5 20 29 46 36 27 44 29 183 35 114 6 161 13 220 32 88 29 90 30 90 18z
m-6350 -1556 c93 -207 118 -256 232 -458 49 -88 87 -161 85 -163 -2 -2 -111
32 -242 76 -131 44 -242 80 -247 80 -22 0 -3 -30 35 -56 23 -15 44 -30 46 -31
5 -4 -96 -96 -234 -214 -128 -109 -186 -167 -264 -264 -30 -38 -90 -108 -132
-155 -88 -98 -112 -126 -168 -195 -74 -90 -42 -117 47 -40 91 77 337 232 494
311 106 53 253 104 299 104 l34 -1 -30 -22 c-154 -114 -495 -461 -590 -601
-32 -47 -64 -86 -71 -86 -7 0 -75 -24 -151 -54 -242 -96 -466 -129 -868 -129
-283 0 -446 17 -470 50 -21 28 -8 34 63 28 91 -8 290 17 385 49 189 64 361
167 545 330 82 73 136 136 115 136 -5 0 -75 -29 -157 -65 -82 -36 -150 -64
-152 -62 -6 6 327 503 413 618 107 142 195 206 347 250 39 11 120 37 180 56
99 32 113 35 144 23 47 -17 63 0 36 37 -47 65 -306 160 -487 180 -32 3 -60 9
-62 13 -12 20 164 70 243 70 56 0 75 16 47 37 -14 10 -63 13 -197 13 -161 0
-191 -3 -311 -30 -164 -36 -289 -68 -322 -80 -34 -13 -32 4 2 19 110 51 321
128 755 277 195 67 272 89 370 104 68 10 132 18 142 17 15 -2 38 -42 96 -172z
m6275 -527 c22 -14 65 -46 95 -72 30 -26 96 -73 145 -104 98 -61 390 -196 464
-214 25 -6 55 -16 66 -22 50 -27 371 -39 420 -16 50 24 356 117 352 107 -7
-21 -204 -121 -299 -151 -10 -3 -18 -9 -18 -13 1 -10 158 -64 303 -104 125
-34 303 -102 402 -152 77 -39 155 -92 155 -106 0 -5 -33 1 -72 14 -140 44
-584 104 -634 85 -14 -6 -24 -16 -22 -23 3 -6 84 -66 181 -132 97 -66 217
-157 266 -203 124 -114 247 -281 290 -395 15 -40 -2 -33 -32 12 -33 50 -265
247 -372 317 -178 115 -245 134 -386 111 -52 -9 -155 -19 -229 -23 -183 -9
-281 16 -453 113 -54 31 -100 53 -103 50 -4 -3 3 -19 15 -35 29 -41 276 -278
312 -299 16 -10 29 -20 29 -24 0 -4 -30 -15 -66 -25 -82 -22 -140 -12 -253 41
-113 54 -163 98 -276 240 -143 180 -134 174 -248 187 -53 6 -102 8 -109 5 -8
-2 -20 -29 -26 -58 -7 -29 -17 -58 -23 -66 -8 -9 -43 -13 -126 -13 -142 0
-145 -4 -74 -106 72 -102 111 -191 123 -276 12 -85 15 -412 4 -447 -10 -29
-17 -21 -46 54 -21 52 -140 221 -228 324 -44 52 -58 35 -19 -24 45 -68 48 -82
32 -194 -21 -138 -82 -256 -218 -418 -56 -67 -129 -158 -162 -202 -92 -123
-96 -111 -28 93 l47 141 0 170 1 170 -68 209 c-38 115 -84 245 -103 289 -45
106 -44 111 9 88 54 -23 81 -30 172 -41 41 -5 86 -12 100 -16 46 -12 28 23
-37 70 -79 56 -186 166 -223 229 -26 46 -166 418 -159 425 8 11 140 -80 217
-151 83 -75 232 -260 279 -346 20 -36 44 -33 53 8 9 41 -28 428 -51 539 -9 40
-14 77 -12 83 2 6 61 -65 130 -158 83 -109 157 -196 213 -247 l86 -79 182 -2
c162 -2 186 -5 222 -23 48 -25 178 -57 295 -72 98 -13 255 5 358 39 138 47
462 216 462 241 0 4 -82 15 -182 24 -151 14 -206 15 -313 6 -71 -5 -227 -11
-345 -13 l-215 -2 -37 40 c-20 22 -47 67 -59 100 -31 85 -60 141 -150 292 -81
137 -96 171 -84 200 6 16 8 16 23 -3 9 -12 35 -33 57 -46z m-2069 -485 c32
-146 156 -419 247 -545 25 -35 95 -119 156 -188 l111 -125 -43 -38 c-23 -21
-107 -90 -186 -154 -79 -64 -188 -155 -241 -202 -274 -244 -414 -351 -463
-351 -24 0 -72 51 -99 104 -28 54 -32 35 -18 -71 16 -120 30 -144 103 -167 30
-10 79 20 183 113 198 175 365 306 633 498 263 187 311 218 311 195 0 -5 35
-83 78 -173 111 -232 136 -288 128 -296 -3 -4 -46 3 -94 15 -214 55 -341 49
-574 -24 -134 -43 -354 -161 -432 -233 -69 -64 -173 -252 -138 -251 4 0 30 32
57 72 28 39 51 65 53 57 1 -8 -18 -74 -43 -148 -24 -74 -43 -136 -41 -139 10
-9 28 12 53 61 55 110 223 288 344 367 104 67 155 81 338 93 185 12 326 -1
434 -43 100 -38 106 -46 117 -185 5 -66 10 -178 10 -248 0 -104 3 -128 14
-125 12 3 110 120 200 241 16 20 33 37 40 36 14 0 88 -93 113 -144 62 -121
103 -299 103 -440 0 -161 -84 -396 -195 -543 -91 -121 -244 -218 -392 -249
-92 -19 -438 -22 -544 -4 -139 23 -307 80 -351 119 -16 13 -18 13 -24 -2 -12
-30 16 -74 60 -95 108 -52 434 -111 613 -111 128 0 320 23 382 45 56 20 137
68 178 108 49 46 51 25 4 -38 -27 -35 -36 -55 -27 -55 21 0 101 93 148 172 43
73 61 92 58 62 -9 -78 12 -51 64 87 25 63 48 114 53 114 4 0 9 -11 11 -25 11
-93 34 -35 31 80 -1 65 3 97 18 135 39 95 82 351 68 396 -12 38 -25 18 -25
-38 0 -62 -19 -156 -38 -188 -9 -16 -11 3 -12 96 0 135 -19 245 -62 367 -34
99 -68 168 -110 230 -17 25 -26 47 -22 55 21 33 150 182 159 182 6 0 22 -61
37 -135 14 -74 43 -200 63 -280 48 -190 62 -302 75 -608 10 -234 3 -449 -16
-514 -13 -43 18 -19 79 63 37 49 72 89 77 89 5 0 7 -12 5 -27 -3 -16 -18 -111
-35 -213 -16 -102 -46 -252 -65 -335 -32 -138 -51 -205 -151 -549 -78 -267
-262 -689 -375 -861 -151 -229 -258 -327 -620 -571 -519 -349 -836 -536 -1019
-602 -114 -41 -330 -92 -391 -92 -127 0 -417 49 -594 101 -121 36 -351 119
-458 165 -56 25 -120 52 -142 61 -172 72 -506 264 -629 362 -114 91 -278 270
-358 391 -173 260 -357 620 -435 850 -14 41 -30 80 -35 87 -5 6 -61 44 -125
84 -77 49 -118 81 -125 98 -7 18 -4 68 8 168 l18 141 -60 72 c-95 114 -131
170 -164 254 -32 80 -33 109 -3 65 39 -55 215 -269 276 -335 63 -68 175 -142
196 -130 4 3 -9 24 -30 46 -87 91 -159 288 -195 535 -26 175 -26 567 0 685 25
115 40 142 154 267 53 60 115 130 137 157 45 56 59 47 20 -13 -103 -164 -138
-464 -83 -699 15 -63 41 -141 58 -174 32 -65 32 -82 1 -54 -52 47 -118 228
-136 369 -9 67 -29 56 -33 -18 -7 -129 48 -277 157 -423 34 -46 61 -86 58 -88
-4 -5 -81 50 -119 85 -15 13 -31 21 -35 17 -13 -13 148 -159 216 -196 35 -19
92 -62 128 -95 102 -94 203 -158 203 -127 0 5 -24 25 -52 45 -58 40 -89 77
-64 77 8 0 17 -4 20 -9 10 -16 167 -72 256 -91 147 -32 220 -35 375 -11 241
36 444 104 605 201 139 84 179 143 51 76 -130 -68 -413 -156 -601 -186 -129
-20 -349 -8 -470 27 -152 43 -234 104 -387 286 -129 155 -168 265 -167 472 1
221 38 347 152 520 49 74 154 185 175 185 8 0 21 -42 37 -120 29 -143 27 -144
95 67 40 124 50 146 80 171 96 79 435 139 640 113 135 -17 214 -49 316 -127
117 -90 200 -214 264 -396 15 -43 32 -75 37 -72 19 12 -18 166 -58 246 -28 55
-28 58 -10 58 8 0 26 -15 40 -32 45 -58 28 -10 -34 92 -33 55 -60 102 -60 105
0 3 18 -4 41 -15 23 -12 43 -19 45 -17 12 12 -171 144 -261 190 -117 59 -327
111 -495 122 -108 8 -256 -17 -361 -60 -55 -22 -59 -22 -59 -6 0 10 7 24 15
31 8 7 15 18 15 25 0 7 12 33 26 59 16 28 23 53 19 65 -4 15 7 34 42 73 27 29
59 70 71 91 13 20 26 37 29 37 3 0 210 -103 459 -229 474 -241 508 -254 599
-237 71 14 143 110 127 171 l-8 29 -18 -30 c-22 -36 -60 -53 -141 -61 -59 -5
-63 -4 -180 57 -66 34 -266 137 -445 228 -179 91 -326 166 -328 168 -2 1 57
64 131 141 74 76 214 228 311 338 141 160 185 217 222 288 25 48 48 87 52 87
4 0 19 -62 34 -138 48 -242 110 -366 299 -593 102 -122 113 -133 134 -126 12
5 9 23 -21 108 -19 56 -33 103 -31 105 2 2 55 -52 118 -122 75 -82 138 -141
184 -171 115 -77 218 -168 340 -304 107 -120 149 -155 129 -111 -65 147 -85
277 -91 574 -5 241 -1 309 29 431 18 74 27 63 58 -77 33 -151 188 -474 295
-618 62 -82 140 -157 151 -145 3 3 -2 20 -12 38 -56 110 -78 341 -56 604 14
158 37 250 95 387 25 56 62 157 82 223 20 66 41 135 46 153 13 39 27 41 35 5z
m2228 -915 c28 -31 84 -111 124 -177 69 -113 91 -136 107 -111 4 6 -5 63 -20
126 -15 63 -25 119 -23 125 4 13 67 -54 198 -210 106 -127 147 -166 257 -242
78 -54 361 -192 375 -183 4 3 8 13 8 24 0 13 -24 28 -92 58 -51 22 -104 43
-117 47 -30 9 -54 64 -80 183 -12 50 -21 96 -21 102 0 5 18 10 41 10 34 0 47
-6 77 -36 25 -25 32 -38 24 -43 -21 -13 -9 -43 53 -135 145 -217 334 -361 573
-437 39 -13 72 -27 72 -31 0 -11 -97 -10 -203 2 -122 14 -379 115 -472 184
-71 54 -92 59 -225 57 -148 -2 -240 10 -314 43 -52 23 -58 30 -183 218 -72
106 -148 227 -171 268 -41 75 -102 218 -102 240 0 20 60 -23 114 -82z m36
-772 c38 -20 74 -45 79 -54 4 -9 11 -60 15 -112 16 -229 80 -436 212 -695 181
-354 177 -346 215 -372 35 -23 37 -28 43 -91 16 -156 72 -350 137 -469 43 -80
37 -99 -9 -30 -91 133 -235 432 -377 780 l-89 217 -66 39 c-82 49 -315 232
-323 256 -4 9 -7 31 -7 48 0 58 -18 14 -33 -79 -8 -50 -26 -112 -40 -140 -13
-27 -46 -101 -72 -164 -80 -197 -175 -373 -192 -356 -3 3 15 56 40 118 94 234
151 457 201 788 41 266 49 349 41 439 l-6 84 80 -85 c59 -62 100 -95 151 -122z
m323 -54 c82 -60 193 -124 301 -172 90 -41 101 -50 136 -100 56 -83 223 -243
281 -271 27 -12 49 -26 49 -30 0 -5 -19 -13 -42 -19 -85 -22 -193 -51 -207
-56 -11 -3 -10 -8 3 -27 34 -46 108 -215 140 -321 68 -222 87 -296 84 -328 -3
-33 -3 -33 -22 17 -49 132 -189 397 -254 483 -16 21 -58 50 -113 78 l-88 44
-94 -7 c-52 -3 -110 -3 -129 1 -33 6 -36 11 -87 127 -29 67 -51 123 -49 125 2
1 46 -10 98 -27 158 -50 250 -69 335 -69 78 0 251 23 263 35 14 13 -40 48
-138 88 -155 65 -210 95 -376 205 -189 127 -226 161 -222 204 2 23 11 36 28
45 37 19 46 17 103 -25z m-225 -975 c52 -55 71 -168 78 -467 7 -325 -28 -606
-92 -732 -41 -81 -252 -418 -290 -463 -18 -22 -87 -103 -151 -180 -97 -115
-129 -146 -178 -173 -51 -28 -67 -32 -108 -28 -51 6 -194 42 -216 55 -10 7 -3
34 37 133 65 158 245 678 271 783 11 44 34 121 51 170 31 91 98 349 119 460
19 99 21 105 30 105 5 0 19 -30 31 -66 22 -64 22 -67 5 -112 -10 -26 -32 -74
-50 -107 -18 -33 -49 -111 -69 -173 -37 -115 -38 -137 -10 -193 20 -40 -39
-210 -107 -307 -72 -104 -102 -174 -103 -243 -1 -78 13 -93 80 -84 47 6 54 4
64 -14 20 -39 46 -24 124 73 42 52 76 97 76 100 0 20 -31 -3 -88 -64 -62 -67
-66 -70 -83 -54 -25 23 -24 36 6 64 34 32 40 79 26 183 -11 78 -11 91 3 112
23 35 34 31 38 -12 2 -30 7 -38 22 -38 14 0 23 13 35 50 9 28 33 81 54 118 20
37 37 79 37 93 0 13 -11 52 -25 86 -27 66 -30 93 -16 130 11 30 82 78 115 78
44 0 125 -117 126 -183 0 -15 -11 -55 -25 -89 -28 -68 -30 -78 -15 -78 15 0
67 89 81 139 15 53 2 132 -37 218 -21 49 -24 70 -24 184 0 71 4 129 9 129 19
0 85 -184 106 -295 27 -151 32 -171 41 -162 13 13 24 93 34 252 8 136 7 192
-4 277 -8 58 -16 111 -19 116 -4 4 -30 5 -59 2 -29 -4 -54 -7 -55 -6 -1 1 -5
51 -9 113 -8 125 -11 119 72 122 30 1 46 -5 62 -22z m-6592 -52 c12 -9 43 -14
87 -15 37 0 67 -4 67 -8 0 -16 30 -248 35 -269 8 -34 -7 -28 -35 15 -51 76
-110 150 -125 156 -39 15 -62 -26 -89 -159 -20 -104 -53 -364 -61 -488 -6 -99
-6 -99 17 -95 20 3 26 17 54 129 17 69 39 139 48 156 17 34 161 168 179 168
15 0 49 -113 41 -138 -3 -10 -33 -48 -66 -85 -65 -71 -102 -136 -117 -203 -25
-112 73 -373 178 -473 17 -17 31 -27 31 -24 0 4 -11 49 -25 100 -21 77 -41
183 -70 360 -4 24 2 30 70 67 41 23 79 41 85 41 12 0 57 -50 103 -113 l30 -41
-17 -46 c-10 -25 -32 -84 -49 -132 l-30 -87 98 -130 c54 -72 100 -131 102
-131 2 0 21 16 41 35 63 59 99 42 58 -27 -13 -24 -37 -84 -52 -134 -14 -50
-35 -102 -44 -115 l-18 -23 -56 17 c-57 18 -80 16 -74 -8 3 -13 175 -145 189
-145 20 0 31 41 39 149 9 119 40 230 65 238 6 2 34 -57 62 -129 29 -73 82
-206 118 -295 36 -90 65 -167 65 -171 0 -5 -53 -37 -119 -71 -132 -68 -175
-75 -246 -42 -54 26 -83 55 -210 206 -60 72 -152 180 -205 240 -112 129 -254
318 -287 383 -22 42 -23 57 -23 231 0 120 -7 248 -20 361 -21 181 -26 417 -11
482 15 65 137 278 160 278 4 0 16 -7 27 -15z m5425 -2887 l-6 -427 -60 -54
c-33 -30 -82 -86 -110 -125 -27 -39 -53 -71 -57 -72 -5 0 -29 15 -55 33 -77
55 -287 167 -311 167 -12 0 -47 -14 -78 -31 l-56 -32 -111 7 c-156 10 -149 10
-253 -34 -52 -22 -96 -40 -99 -40 -18 0 3 22 56 61 47 34 78 68 131 148 77
114 91 158 64 208 l-15 31 191 106 c105 59 193 104 195 102 10 -10 -161 -245
-262 -360 -61 -70 -76 -96 -57 -96 18 0 334 332 402 423 40 53 77 97 82 97 12
0 12 0 -99 -162 -101 -149 -112 -168 -93 -168 15 0 162 147 230 229 25 30 54
63 65 72 103 91 202 206 268 312 17 26 34 44 38 40 4 -4 4 -200 0 -435z
m-3768 -111 c16 -28 56 -104 89 -167 97 -182 116 -208 133 -180 3 5 -22 64
-55 130 -34 67 -60 126 -58 130 4 11 339 -312 338 -326 0 -17 -111 -63 -192
-80 -67 -14 -160 -15 -174 -1 -8 7 -124 514 -124 540 0 20 18 1 43 -46z m4105
-286 c-1 -5 -37 -36 -79 -69 -53 -42 -91 -83 -130 -140 -30 -45 -57 -81 -61
-82 -7 0 -16 188 -10 207 5 15 39 28 155 57 54 13 101 27 104 30 10 9 25 7 21
-3z m-3298 -201 c58 -27 159 -72 225 -100 114 -49 194 -91 385 -203 164 -96
342 -212 347 -225 3 -7 -4 -50 -15 -95 -82 -320 -109 -476 -123 -712 -6 -99
-14 -190 -18 -203 -10 -37 -44 -49 -691 -261 -118 -38 -281 -84 -361 -100 -80
-17 -193 -47 -249 -66 -57 -19 -108 -35 -113 -35 -16 0 -1 724 18 875 55 445
109 642 255 930 47 93 99 189 114 212 28 42 29 42 75 37 25 -3 93 -28 151 -54z
m2393 24 c133 -69 232 -163 342 -324 l58 -85 -29 -22 c-16 -13 -60 -48 -99
-78 -38 -30 -72 -55 -75 -55 -3 0 -27 48 -55 107 -58 125 -161 283 -240 368
-30 32 -55 61 -55 63 0 6 86 42 103 42 10 0 32 -7 50 -16z m-2719 -61 c-15
-27 -31 -52 -35 -58 -40 -57 -171 -434 -224 -645 -51 -206 -59 -248 -80 -398
-16 -121 -40 -684 -33 -790 3 -54 2 -63 -11 -59 -31 10 -427 184 -491 217 -76
38 -227 139 -253 167 -17 19 -17 32 -7 189 16 268 49 480 92 609 23 69 112
187 214 286 75 71 274 223 366 278 59 36 68 50 68 117 l0 41 81 7 c110 9 213
32 274 60 27 14 54 25 58 25 4 1 -4 -20 -19 -46z m2331 17 c-28 -31 -176 -103
-431 -208 -493 -205 -571 -235 -586 -226 -6 4 -41 30 -77 57 -36 27 -92 63
-123 80 -32 18 -58 35 -58 38 0 12 42 16 163 18 l119 2 32 -37 c29 -33 37 -37
78 -37 71 2 157 28 237 73 40 23 115 57 166 75 51 19 124 48 162 66 131 61
278 118 307 119 28 0 29 -1 11 -20z m320 -136 c30 -45 74 -119 99 -165 43 -81
116 -243 116 -258 0 -4 -36 -38 -80 -75 l-80 -67 -17 43 c-26 65 -136 286
-189 380 -43 75 -86 138 -122 176 -7 8 -12 16 -10 17 2 2 44 21 93 43 l90 40
23 -27 c13 -14 47 -63 77 -107z m-261 -31 c48 -78 111 -201 154 -298 42 -98
102 -276 96 -286 -9 -15 -276 -191 -281 -185 -3 2 -22 78 -43 168 -47 199 -74
277 -152 436 -33 67 -59 124 -57 126 13 10 217 95 230 95 10 1 32 -23 53 -56z
m3164 -74 c47 -21 50 -28 23 -53 -67 -61 0 -194 111 -224 61 -17 89 -3 118 53
16 33 24 65 23 93 -1 23 0 42 1 42 5 0 123 -49 159 -67 l39 -18 -8 -60 c-16
-111 -9 -173 23 -219 26 -37 132 -127 165 -139 10 -3 10 -7 1 -17 -10 -11 -33
-11 -125 0 -222 25 -198 26 -198 -6 0 -33 62 -94 132 -130 53 -27 180 -64 219
-64 33 0 42 -11 63 -76 11 -33 25 -55 41 -64 19 -10 25 -22 25 -46 0 -19 9
-48 20 -66 26 -42 27 -73 3 -63 -237 91 -336 108 -623 109 -202 1 -234 -1
-313 -22 -141 -35 -147 -34 -247 63 -99 97 -132 115 -202 115 -59 0 -106 17
-155 57 -26 22 -85 149 -115 247 -11 39 -29 85 -40 103 -13 21 -17 40 -12 58
9 35 20 32 224 -65 171 -81 250 -110 306 -110 42 0 47 10 28 55 -8 20 -12 45
-9 55 7 22 88 58 150 67 25 3 45 9 45 13 0 4 -30 11 -67 14 -180 18 -434 66
-616 117 -36 10 -37 11 -31 47 3 20 8 60 12 87 l7 50 80 6 c44 4 119 10 166
14 75 7 91 5 132 -13 61 -27 175 -101 227 -148 29 -26 44 -34 52 -26 17 17
-19 66 -91 125 -64 51 -65 52 -35 55 73 7 132 25 169 52 42 31 48 31 123 -1z
m-3446 -104 c90 -173 154 -394 172 -585 l6 -65 -112 -67 c-191 -113 -288 -156
-288 -127 0 8 -7 71 -15 141 -8 70 -24 221 -35 335 -12 114 -25 239 -30 278
-13 95 -12 115 3 115 6 1 57 21 112 45 55 24 107 43 115 42 8 -1 41 -51 72
-112z m-353 -222 c34 -314 70 -667 68 -669 -7 -6 -605 -264 -611 -264 -14 0
13 326 45 555 13 93 72 361 92 420 16 45 8 40 232 120 66 24 127 43 135 44 13
1 20 -35 39 -206z m1394 144 c8 -20 -12 -294 -29 -392 -14 -84 -34 -135 -53
-135 -4 0 -15 35 -24 78 -10 42 -35 122 -57 176 -22 55 -40 105 -40 112 0 7
38 45 84 84 47 38 88 75 91 80 9 14 22 13 28 -3z m-4527 -52 l17 -46 -30 -42
c-40 -56 -124 -224 -156 -312 -13 -38 -35 -114 -47 -167 -32 -138 -40 -133
-60 39 -13 107 -6 153 43 281 25 67 49 105 117 187 47 57 88 104 92 104 3 1
14 -19 24 -44z m78 -161 c16 -47 16 -47 -18 -123 -66 -147 -116 -371 -116
-518 0 -29 -3 -53 -8 -53 -4 0 -38 30 -75 68 l-67 67 39 145 c47 175 63 217
130 340 54 99 79 133 91 125 5 -3 15 -26 24 -51z m4220 -51 c11 -38 36 -124
57 -193 21 -69 35 -127 31 -130 -46 -37 -155 -115 -160 -115 -6 0 -19 40 -78
243 -19 68 -34 127 -32 132 3 10 149 130 158 130 3 0 14 -30 24 -67z m-4028
-110 c-45 -153 -73 -344 -84 -574 l-7 -157 -92 75 c-107 86 -102 67 -74 253
20 131 35 184 92 313 31 70 36 77 59 72 14 -2 40 4 60 15 44 24 53 25 46 3z
m3804 -84 c29 -107 47 -201 55 -274 l6 -60 -167 -147 c-91 -82 -170 -148 -173
-148 -4 0 -15 102 -24 228 -10 125 -20 237 -23 248 -4 17 3 28 33 48 21 15 88
63 148 106 61 44 113 79 116 80 4 0 17 -36 29 -81z m-396 -261 c23 -313 15
-512 -28 -693 -32 -132 -71 -255 -99 -310 -24 -49 -114 -169 -155 -209 l-30
-28 -6 43 c-7 50 -27 270 -57 639 -11 140 -24 290 -28 333 l-7 79 65 33 c88
44 233 128 284 165 23 16 45 29 48 30 3 0 9 -37 13 -82z m2631 -152 l310 -52
-41 -22 c-68 -35 -287 -120 -474 -184 -234 -80 -428 -157 -585 -234 -281 -136
-567 -353 -847 -642 -268 -277 -436 -514 -488 -688 l-12 -40 -147 -17 c-80 -9
-195 -22 -256 -27 -60 -6 -240 -26 -400 -45 -412 -48 -429 -49 -421 -37 11 19
227 147 352 209 163 82 358 197 658 389 201 128 268 176 343 247 93 87 129
143 148 228 l16 77 97 28 c53 15 126 41 162 57 96 44 213 93 323 138 107 43
218 99 437 218 269 147 393 230 435 291 25 37 30 52 29 102 -1 56 0 58 25 57
14 0 166 -24 336 -53z m-6443 -33 l66 -68 6 -215 c3 -118 8 -255 11 -305 6
-107 -3 -93 -35 50 -12 55 -45 197 -72 315 -56 245 -64 290 -52 290 5 0 39
-30 76 -67z m3362 -220 c9 -126 26 -343 37 -483 11 -140 24 -282 29 -315 15
-93 14 -99 -41 -156 -48 -50 -50 -55 -45 -93 3 -23 8 -122 12 -222 6 -175 6
-181 -14 -200 -21 -20 -224 -143 -334 -203 l-58 -31 -24 48 c-54 107 -118 329
-141 487 -9 61 -25 164 -35 230 -36 225 -47 498 -33 788 l6 136 296 119 c163
66 303 121 311 121 13 1 19 -35 34 -226z m4216 182 c359 -46 601 -184 713
-407 58 -116 47 -143 -37 -94 -78 45 -272 126 -351 146 -100 25 -293 27 -421
5 -134 -24 -499 -149 -634 -218 -405 -206 -618 -376 -903 -719 -130 -156 -229
-293 -269 -371 l-27 -52 -123 -5 c-68 -3 -126 -3 -130 0 -8 6 67 189 149 360
175 365 479 763 773 1011 135 114 368 246 528 299 173 57 488 77 732 45z
m-7345 -181 c52 -42 95 -79 95 -83 0 -39 73 -732 86 -813 8 -52 -8 -48 -47 10
-18 26 -58 76 -90 112 -76 87 -91 144 -134 505 -14 126 -21 345 -10 345 3 0
48 -34 100 -76z m2408 -456 c4 -342 8 -423 25 -533 48 -301 98 -507 165 -676
l34 -86 -145 -72 c-167 -83 -332 -142 -500 -176 -222 -46 -587 -55 -612 -15
-4 6 -35 108 -69 228 -35 119 -83 278 -107 352 -23 74 -56 189 -73 255 -17 66
-42 163 -56 215 -39 147 -41 189 -13 225 36 48 214 211 282 259 115 83 308
173 480 226 155 48 280 91 471 164 50 18 95 34 101 35 9 1 13 -110 17 -401z
m-2145 264 c146 -98 502 -276 607 -304 l43 -12 7 -65 c18 -184 81 -498 139
-691 69 -229 208 -751 202 -758 -13 -13 -208 22 -322 58 -247 77 -323 142
-466 395 -67 119 -162 411 -218 670 -43 201 -106 765 -85 765 3 0 45 -26 93
-58z m5662 12 c0 -4 -38 -46 -84 -95 -293 -307 -593 -771 -741 -1144 -26 -66
-48 -121 -49 -122 -1 -1 -118 -9 -261 -18 -143 -9 -332 -22 -420 -29 -88 -7
-161 -12 -163 -11 -6 4 92 225 125 279 100 167 291 379 538 596 227 200 385
312 538 384 130 61 385 147 472 159 17 2 33 5 38 6 4 0 7 -2 7 -5z m1076 -182
c53 -63 158 -225 201 -308 99 -193 143 -352 162 -584 6 -69 13 -146 17 -171
l6 -47 -93 -6 c-52 -3 -335 -8 -629 -10 -301 -3 -642 -12 -780 -20 -135 -9
-273 -16 -307 -16 l-62 0 79 125 c43 68 103 155 133 192 85 105 452 463 545
531 225 166 580 350 677 351 11 1 34 -16 51 -37z m-7095 -490 c6 -20 16 -43
22 -50 7 -9 -5 -28 -45 -70 -128 -136 -191 -228 -315 -462 -60 -112 -123 -272
-123 -310 0 -11 -8 -23 -17 -28 -19 -10 -517 -25 -525 -16 -3 3 8 40 24 83 23
60 53 108 129 206 202 262 348 409 514 517 103 66 307 178 316 172 4 -2 13
-21 20 -42z m8688 -153 c31 -77 62 -259 77 -443 l7 -89 -88 6 c-48 3 -89 8
-91 9 -1 2 6 93 16 203 10 110 22 241 26 290 6 84 11 111 19 103 2 -2 17 -37
34 -79z m-8605 -33 l17 -45 -79 -94 c-135 -160 -253 -354 -318 -525 -28 -72
-28 -72 -66 -72 -24 0 -38 5 -38 13 0 62 134 352 235 507 42 65 211 260 225
260 4 0 15 -20 24 -44z m101 -235 l48 -93 -18 -32 c-11 -17 -47 -70 -82 -117
-64 -87 -78 -131 -47 -143 26 -10 104 -7 208 9 55 8 108 15 119 15 19 0 167
-135 167 -153 0 -9 -585 -2 -727 9 -84 7 -85 7 -53 100 31 89 104 231 163 316
66 96 159 201 168 191 3 -5 28 -50 54 -102z"/>
<path d="M5845 8260 c-14 -22 9 -75 50 -115 50 -50 134 -85 205 -85 60 0 65
15 11 30 -41 11 -70 36 -123 105 -18 24 -45 50 -60 59 -30 18 -74 21 -83 6z"/>
<path d="M5214 8189 c-6 -8 -31 -55 -57 -104 -25 -50 -57 -111 -71 -135 -31
-54 -32 -60 -7 -60 36 0 120 119 150 212 14 43 3 110 -15 87z"/>
<path d="M6725 8105 c-93 -45 -142 -108 -174 -224 -29 -103 -36 -203 -21 -292
29 -171 72 -250 168 -307 95 -55 231 -24 323 74 56 60 72 89 65 118 -6 26 -27
38 -110 66 -78 26 -102 43 -108 75 -7 32 21 69 61 83 22 8 38 6 71 -9 96 -43
120 -16 102 114 -16 121 -48 215 -86 253 -35 35 -143 74 -205 74 -20 0 -58
-11 -86 -25z m95 -312 c17 -22 20 -36 16 -68 -4 -22 -9 -68 -12 -103 -6 -56
-9 -63 -27 -60 -33 5 -60 52 -65 112 -5 67 2 100 28 126 26 26 34 25 60 -7z
m-140 -179 c7 -19 29 -54 51 -76 37 -40 40 -40 91 -35 40 4 69 0 116 -16 76
-27 81 -48 24 -109 -37 -40 -41 -41 -100 -40 -78 1 -136 26 -203 88 -63 60
-79 90 -79 152 0 48 1 49 38 59 20 6 40 11 44 12 3 0 12 -15 18 -35z"/>
<path d="M4352 8039 c-145 -72 -232 -244 -232 -459 0 -142 44 -257 127 -330
59 -51 105 -72 178 -78 73 -5 122 15 195 84 64 60 122 181 102 211 -4 7 -32
17 -62 23 -79 15 -128 70 -115 130 15 68 76 76 147 20 45 -37 52 -37 66 -5 26
57 5 199 -41 276 -89 151 -224 199 -365 128z m275 -71 c15 -8 40 -40 61 -80
28 -55 36 -82 40 -143 4 -61 2 -75 -10 -75 -10 0 -18 20 -25 68 -6 37 -16 80
-22 96 -10 25 -15 28 -44 22 -17 -3 -37 -2 -43 2 -24 17 -44 59 -44 95 0 39 1
39 31 33 17 -3 42 -12 56 -18z m-104 -210 c21 -25 22 -46 1 -70 -10 -10 -19
-40 -22 -67 -3 -40 0 -58 17 -87 l22 -37 -28 -23 c-15 -13 -34 -23 -41 -24
-27 0 -71 57 -87 114 -22 76 -7 146 41 194 37 37 65 37 97 0z m-213 -184 c15
-54 80 -158 109 -173 31 -17 61 -13 108 15 36 21 53 25 94 21 28 -3 53 -7 56
-10 16 -16 -87 -117 -154 -151 -122 -62 -297 49 -333 210 -14 63 -7 90 33 114
53 33 72 27 87 -26z"/>
<path d="M5631 7113 c-42 -6 -81 -30 -81 -52 0 -9 -14 -29 -30 -46 -43 -42
-100 -142 -100 -176 0 -48 20 -44 75 17 42 46 56 56 67 47 18 -15 33 -5 45 32
22 68 66 30 85 -74 10 -50 9 -74 -5 -139 -23 -104 -22 -117 8 -130 47 -22 52
-17 58 63 4 41 12 96 18 120 6 25 9 81 7 125 l-5 79 29 10 c32 11 37 28 11 38
-10 4 -40 26 -68 50 -27 24 -56 42 -65 41 -8 0 -30 -3 -49 -5z"/>
<path d="M3664 6243 c-35 -25 -45 -100 -16 -126 37 -34 84 -15 102 39 11 32
10 39 -7 63 -20 26 -58 38 -79 24z"/>
<path d="M5854 5645 c-218 -25 -602 -136 -799 -231 -135 -65 -335 -198 -335
-224 0 -11 4 -20 10 -20 5 0 60 29 123 64 62 35 160 81 218 103 169 66 272 92
729 188 151 31 725 46 917 24 70 -9 98 -8 106 0 26 26 -44 54 -218 86 -125 23
-583 29 -751 10z"/>
<path d="M5955 5034 c-44 -7 -149 -17 -233 -22 -176 -11 -194 -18 -145 -62 47
-42 159 -75 258 -75 71 0 85 3 130 30 28 16 72 39 99 50 57 24 76 47 60 73
-14 22 -65 24 -169 6z"/>
<path d="M4804 3386 c-41 -18 -74 -62 -74 -99 0 -40 64 -101 145 -137 72 -33
230 -79 296 -87 42 -5 50 -2 73 20 35 35 35 80 0 112 -33 31 -97 51 -204 65
-116 16 -109 11 -99 66 5 26 6 51 2 55 -16 16 -108 19 -139 5z"/>
<path d="M4760 2672 c-63 -63 -85 -176 -49 -254 5 -13 28 -36 51 -53 40 -30
68 -71 68 -100 0 -8 -13 -42 -30 -75 -33 -65 -34 -70 -22 -70 5 0 34 37 66 83
77 112 77 112 113 113 18 1 40 7 49 15 23 19 64 108 64 139 0 62 -82 129 -170
139 l-45 6 3 39 c6 67 -41 76 -98 18z"/>
<path d="M3894 3271 c-48 -35 -78 -67 -98 -105 -21 -41 -11 -59 30 -53 24 4
34 2 34 -7 0 -7 -38 -50 -85 -95 -47 -46 -85 -87 -85 -92 0 -35 115 36 184
113 92 102 140 220 104 256 -19 19 -42 14 -84 -17z"/>
<path d="M3652 2599 c-46 -14 -35 -34 18 -34 59 0 74 -24 38 -62 -60 -65 -121
-213 -110 -270 2 -13 15 -31 29 -40 39 -26 91 -4 154 65 62 68 90 125 96 201
5 62 -7 93 -48 123 -31 23 -128 32 -177 17z"/>
<path d="M4995 1719 c-37 -22 -80 -62 -102 -93 -26 -39 -53 -127 -53 -173 0
-57 57 -146 116 -184 56 -34 84 -1 44 51 -27 34 -25 40 10 40 82 0 153 64 168
150 4 24 13 45 21 48 14 5 12 -52 -4 -148 l-6 -35 20 23 c68 78 42 234 -48
296 -47 33 -131 45 -166 25z"/>
<path d="M5103 903 c-85 -30 -143 -131 -143 -251 0 -59 2 -66 34 -98 19 -19
42 -34 51 -34 45 0 121 80 145 153 11 34 14 37 51 37 66 0 85 57 48 151 -12
31 -67 59 -112 58 -18 0 -51 -7 -74 -16z"/>
<path d="M3676 1669 c-34 -27 -56 -70 -56 -109 0 -40 22 -48 67 -24 21 11 37
15 40 9 2 -5 23 -46 46 -90 31 -58 50 -82 70 -89 53 -19 92 55 67 128 -18 56
-106 164 -147 181 -46 20 -55 19 -87 -6z"/>
<path d="M3876 855 c-9 -13 -16 -29 -16 -36 0 -6 -14 -27 -31 -46 -38 -45 -34
-59 19 -55 41 4 41 3 70 -55 38 -73 65 -99 124 -114 42 -12 49 -11 68 6 11 10
20 25 20 34 0 29 -46 115 -91 170 -103 127 -132 144 -163 96z"/>
</g>
</svg>
