<?xml version="1.0" standalone="no"?>
<!DOCTYPE svg PUBLIC "-//W3C//DTD SVG 20010904//EN"
 "http://www.w3.org/TR/2001/REC-SVG-20010904/DTD/svg10.dtd">
<svg version="1.0" xmlns="http://www.w3.org/2000/svg"
 width="1500.000000pt" height="1498.000000pt" viewBox="0 0 1500.000000 1498.000000"
 preserveAspectRatio="xMidYMid meet">
<metadata>
Created by potrace 1.16, written by Peter Selinger 2001-2019
</metadata>
<g transform="translate(0.000000,1498.000000) scale(0.100000,-0.100000)"
fill="#000000" stroke="none">
<path d="M7246 14847 c-277 -692 -427 -970 -775 -1436 -103 -138 -97 -129
-195 -275 -107 -159 -120 -196 -106 -295 6 -42 10 -101 8 -131 l-3 -55 -17 33
c-9 18 -22 58 -29 90 -7 35 -25 74 -46 101 -38 51 -37 35 -18 216 8 77 26 257
40 400 14 143 30 294 35 335 5 41 7 77 4 82 -6 9 -709 -700 -758 -763 -19 -26
-38 -59 -42 -75 -4 -16 -15 -46 -26 -67 -10 -21 -28 -67 -39 -102 -11 -35 -24
-67 -29 -70 -6 -3 -10 -16 -10 -28 0 -12 -21 -78 -45 -147 -51 -141 -54 -182
-26 -283 11 -38 27 -105 37 -150 18 -90 56 -229 80 -294 18 -49 41 -56 50 -15
3 15 19 74 34 132 16 58 36 134 44 169 15 63 30 91 42 78 4 -4 2 -30 -5 -59
-16 -78 -56 -241 -80 -332 -31 -117 -28 -179 15 -289 37 -95 66 -139 83 -122
5 6 28 57 52 115 23 58 45 110 50 115 4 6 26 58 48 118 48 126 81 297 111 572
35 322 74 515 100 489 5 -5 5 -24 0 -49 -6 -22 -19 -116 -30 -210 -11 -93 -29
-233 -40 -310 -31 -218 -31 -213 -18 -221 7 -5 31 14 62 49 28 32 56 57 63 57
23 0 32 -37 48 -206 26 -284 50 -434 65 -417 13 13 107 225 177 398 61 151
104 294 119 395 4 25 13 57 20 71 7 15 20 73 29 129 8 57 22 114 30 126 8 12
21 48 29 80 8 33 33 109 56 169 22 61 52 139 65 175 32 87 87 232 115 303 16
41 26 55 34 47 7 -7 6 -20 -3 -43 -7 -17 -16 -48 -20 -67 -4 -19 -12 -44 -18
-55 -5 -11 -18 -42 -27 -70 -9 -27 -76 -225 -148 -438 -124 -371 -138 -427
-99 -403 38 24 147 260 216 470 23 72 60 174 80 226 20 52 45 122 54 155 17
57 34 93 127 276 88 172 114 216 153 259 46 50 44 34 -6 -49 -32 -54 -71 -131
-166 -331 -85 -180 -115 -253 -164 -405 -14 -44 -34 -97 -44 -117 -11 -21 -19
-50 -19 -65 -1 -15 -9 -46 -19 -68 -14 -29 -17 -45 -9 -58 9 -18 10 -18 30 0
11 10 73 81 138 158 145 172 175 202 186 183 5 -7 11 -200 15 -428 8 -522 19
-593 126 -807 51 -103 96 -164 110 -148 6 6 21 51 36 100 112 389 164 547 272
835 26 69 63 179 82 245 32 109 35 131 35 245 0 87 -8 173 -27 283 -27 162
-30 228 -8 177 6 -14 23 -95 37 -180 15 -85 29 -163 32 -172 16 -52 37 14 54
164 14 120 1 259 -40 445 -41 186 -47 237 -29 231 8 -2 15 -17 17 -33 2 -15
10 -38 17 -49 8 -12 23 -73 35 -136 23 -122 42 -180 60 -180 6 0 19 20 30 45
11 25 24 45 31 45 25 0 84 -93 211 -335 46 -88 96 -180 110 -205 14 -25 31
-62 37 -82 21 -64 35 -46 28 35 -13 145 -111 461 -161 516 -8 9 -18 30 -22 46
-4 17 -19 48 -34 70 -26 39 -105 174 -207 360 -106 191 -191 341 -212 375 -11
19 -21 44 -21 54 0 10 -6 24 -14 30 -8 6 -34 56 -59 111 -25 55 -57 127 -72
160 -15 33 -31 70 -36 83 -5 12 -14 22 -21 22 -7 0 -35 -55 -62 -123z"/>
<path d="M8604 14036 c-3 -8 -12 -42 -20 -75 -8 -34 -20 -87 -28 -118 -11 -51
-106 -249 -161 -338 -18 -30 -113 -174 -148 -224 -16 -22 -17 -39 -12 -111 12
-162 36 -346 53 -405 24 -81 43 -83 76 -8 37 79 42 88 52 86 17 -4 15 -52 -5
-90 -30 -59 -49 -230 -32 -291 7 -26 17 -64 21 -85 9 -44 25 -66 39 -51 8 8
37 113 108 394 71 277 145 530 155 530 16 0 -2 -85 -98 -470 -171 -689 -158
-615 -160 -860 -2 -221 -9 -316 -24 -325 -15 -9 -20 40 -35 332 -16 300 -25
381 -51 473 -28 97 -168 466 -273 720 -26 63 -58 142 -71 175 -13 33 -44 96
-70 140 -26 44 -57 98 -68 120 -11 22 -29 48 -40 58 -22 20 -19 31 -127 -388
-29 -115 -61 -237 -70 -270 -25 -92 -155 -486 -172 -518 -30 -60 -141 -404
-189 -587 -23 -87 -28 -127 -28 -235 -1 -126 0 -133 38 -235 21 -58 45 -125
53 -149 14 -39 18 -42 29 -27 16 23 30 104 54 327 20 190 25 219 41 219 11 0
12 5 -6 -130 -46 -359 -45 -722 2 -737 18 -6 67 74 108 173 113 278 168 520
190 829 14 202 34 310 53 290 4 -3 12 -30 18 -58 7 -29 28 -101 47 -162 57
-180 118 -376 137 -440 9 -33 34 -116 55 -185 20 -69 47 -161 59 -205 15 -57
26 -81 38 -83 20 -4 21 2 37 138 7 52 15 123 20 158 5 35 12 270 16 524 4 253
11 454 16 446 5 -8 13 -107 20 -219 17 -309 1 -758 -36 -949 -33 -175 -45
-330 -25 -330 32 0 259 272 378 455 102 156 105 161 192 325 86 162 132 230
156 230 17 0 18 -62 4 -241 -5 -68 -19 -335 -30 -594 -11 -258 -22 -503 -26
-542 -8 -94 3 -99 87 -38 35 25 134 94 219 154 397 279 442 315 464 373 9 24
25 93 35 153 11 61 36 200 56 310 19 110 46 263 60 340 13 77 31 178 39 225
20 112 24 182 10 187 -6 2 -33 -35 -60 -83 -62 -109 -191 -314 -211 -337 -31
-33 -25 -8 11 50 19 32 39 73 42 91 13 67 -22 45 -274 -175 -34 -30 -71 -71
-81 -92 -22 -43 -51 -172 -51 -228 0 -49 -15 -101 -51 -185 -16 -37 -34 -90
-39 -118 -10 -54 -40 -111 -40 -77 0 10 13 111 30 225 16 114 34 266 40 337 6
72 15 180 21 240 5 61 13 241 16 400 l6 290 -58 170 c-32 94 -75 215 -95 270
-21 55 -41 112 -44 127 -3 15 -18 40 -32 55 l-25 28 6 -55 c37 -317 56 -846
36 -990 -7 -47 -18 -98 -25 -115 -11 -25 -12 15 -8 235 6 319 -7 523 -54 884
-46 355 -99 580 -187 786 -38 91 -81 170 -92 170 -3 0 -8 -6 -11 -14z"/>
<path d="M4894 13093 c-9 -21 -22 -51 -30 -68 -27 -61 -76 -182 -104 -260 -52
-144 -80 -215 -100 -255 -11 -21 -20 -51 -20 -65 0 -14 -7 -36 -16 -49 -25
-39 -162 -468 -197 -616 -27 -119 -31 -153 -32 -285 l0 -150 33 -62 c18 -35
39 -63 47 -63 22 0 35 42 35 115 0 106 15 81 28 -45 11 -110 26 -170 42 -170
4 0 12 12 19 26 13 30 69 226 83 294 5 25 41 175 80 333 67 272 91 339 115
324 13 -8 60 -159 108 -347 107 -418 154 -572 216 -705 65 -142 93 -138 85 10
-3 56 -15 122 -31 175 -14 47 -32 110 -40 140 -7 30 -34 136 -60 235 -71 271
-74 285 -65 290 17 11 40 -36 64 -130 13 -55 41 -161 61 -235 20 -74 47 -174
60 -223 23 -87 47 -137 65 -137 15 0 50 79 64 144 15 73 5 147 -29 223 -23 50
-94 258 -199 588 -24 77 -58 196 -75 265 -18 69 -36 140 -42 157 -11 34 -52
221 -94 429 -35 173 -43 186 -71 117z"/>
<path d="M6801 12883 c-22 -45 -47 -163 -96 -447 -19 -115 -40 -215 -46 -223
-22 -26 -32 -1 -26 65 6 61 17 122 67 382 10 52 15 99 11 103 -4 4 -37 -21
-73 -55 -146 -140 -251 -308 -362 -575 -25 -60 -63 -148 -86 -198 -56 -123
-53 -117 -103 -235 -49 -114 -72 -213 -62 -263 8 -39 102 -301 122 -339 14
-28 37 -36 48 -18 13 21 25 -3 25 -50 0 -85 30 -121 70 -85 16 15 18 12 24
-37 4 -29 28 -129 53 -223 58 -215 61 -237 62 -482 l1 -201 73 -7 c39 -4 127
-8 195 -8 120 -2 123 -1 142 23 11 14 29 50 41 80 28 76 136 288 198 390 71
117 85 171 77 290 -9 137 -32 281 -62 388 -20 68 -24 96 -16 104 19 19 48 -63
81 -232 17 -85 36 -202 42 -259 5 -58 14 -111 18 -120 7 -11 21 -3 66 40 95
90 101 117 60 277 -61 243 -121 386 -307 742 -91 172 -129 266 -158 386 -20
79 -23 129 -30 439 -5 193 -9 358 -9 368 -1 28 -19 19 -40 -20z"/>
<path d="M10465 12424 c-50 -43 -155 -132 -235 -198 -153 -128 -260 -228 -278
-263 -30 -56 50 -29 303 101 124 64 198 96 220 96 25 0 48 -13 101 -58 122
-101 221 -153 321 -167 57 -7 237 -94 350 -169 148 -97 366 -310 692 -676 260
-291 321 -354 362 -376 25 -12 36 -11 124 17 82 26 107 30 154 24 120 -14 309
-75 379 -122 15 -10 40 -25 56 -33 38 -20 104 -95 141 -161 29 -52 30 -59 29
-174 0 -129 5 -100 -149 -870 -120 -600 -141 -768 -132 -1017 4 -113 11 -170
36 -273 29 -117 96 -439 150 -715 25 -125 27 -190 7 -190 -24 0 -460 472 -506
548 -9 15 -25 34 -35 42 -10 8 -100 109 -199 225 -211 244 -573 616 -871 893
-115 108 -273 258 -350 333 -216 211 -256 242 -351 273 -62 20 -128 74 -155
127 -31 61 -57 189 -74 369 -16 161 -24 195 -41 168 -13 -20 -52 -116 -75
-183 -27 -80 -259 -542 -339 -675 -135 -225 -262 -395 -434 -578 -68 -74 -130
-147 -136 -163 -16 -37 0 -132 32 -195 34 -70 45 -74 80 -34 77 88 297 319
439 462 159 159 235 218 305 237 68 18 235 23 357 12 96 -9 133 -18 205 -47
208 -87 362 -232 598 -563 108 -153 169 -217 274 -294 61 -44 429 -406 512
-503 29 -34 143 -162 253 -284 110 -122 224 -250 253 -284 187 -214 284 -325
309 -351 16 -16 93 -104 173 -195 79 -91 169 -192 199 -225 31 -34 100 -111
155 -173 54 -62 102 -112 107 -112 22 0 5 72 -47 203 -30 78 -74 189 -96 247
-22 58 -54 139 -70 180 -48 118 -85 227 -133 392 -25 84 -57 189 -70 233 -13
44 -36 130 -50 190 -78 326 -96 493 -76 715 12 138 33 228 80 339 17 41 31 79
31 86 0 6 34 61 76 121 42 60 78 113 80 119 2 5 -16 42 -41 80 -89 142 -135
222 -151 265 -28 76 -16 302 21 385 7 16 16 41 19 55 7 36 58 182 95 273 17
43 31 87 31 98 0 11 6 22 14 25 8 3 16 19 20 36 8 38 111 251 167 343 76 125
247 311 483 523 38 34 67 65 64 67 -3 3 -112 -21 -242 -54 -494 -126 -607
-140 -806 -101 -122 24 -398 92 -465 115 -22 7 -71 23 -110 35 -147 45 -395
154 -500 221 -232 147 -316 224 -466 429 -73 99 -106 126 -199 161 -94 35
-212 91 -267 126 -29 18 -55 33 -58 33 -19 0 -223 157 -298 230 -97 92 -146
154 -192 239 -19 36 -37 57 -50 59 -14 2 -51 -23 -110 -74z"/>
<path d="M5819 12103 c-33 -40 -71 -108 -138 -247 -39 -81 -71 -149 -71 -152
0 -2 -12 -28 -26 -57 -38 -76 -158 -429 -199 -584 -44 -166 -60 -349 -52 -608
6 -170 8 -190 50 -356 48 -191 99 -313 183 -435 83 -122 154 -197 171 -181 2
3 -23 64 -56 137 -60 129 -72 170 -51 170 13 0 110 -196 110 -221 0 -10 11
-30 24 -46 12 -15 44 -65 70 -110 26 -46 49 -83 52 -83 7 0 82 107 113 161 27
49 36 82 41 162 0 4 8 7 18 7 18 0 120 99 250 241 58 64 60 69 68 135 11 103
8 389 -5 467 -6 37 -19 89 -27 115 -25 72 -118 264 -143 292 l-22 25 6 -70 c4
-38 17 -124 30 -190 44 -232 68 -416 56 -428 -16 -16 -28 4 -41 68 -30 148
-184 848 -211 960 -17 72 -45 177 -64 235 -39 124 -69 274 -90 460 -9 74 -19
138 -24 143 -4 4 -14 -1 -22 -10z"/>
<path d="M4852 11923 c-5 -10 -21 -54 -36 -98 -27 -84 -49 -177 -160 -685 -9
-41 -32 -167 -51 -280 -61 -372 -67 -494 -29 -600 41 -117 208 -410 233 -410
5 0 26 19 48 43 35 38 48 62 67 120 3 9 14 17 24 17 44 0 222 136 222 169 0
17 -100 294 -128 356 -32 69 -54 147 -45 156 10 10 101 -187 109 -235 3 -17
14 -49 24 -71 10 -22 34 -75 54 -117 19 -43 37 -78 39 -78 2 0 18 5 36 11 43
15 47 43 15 114 -23 53 -64 162 -64 172 0 2 9 -2 20 -9 30 -19 37 -1 45 119
11 160 14 149 -107 403 -96 199 -122 278 -198 585 -39 160 -75 300 -80 313
-11 26 -26 28 -38 5z m-83 -1376 c11 -24 36 -95 56 -158 20 -63 48 -143 61
-177 27 -70 42 -152 28 -152 -10 0 -114 289 -114 317 0 10 -6 27 -14 38 -7 11
-16 39 -19 61 -4 23 -13 54 -21 69 -13 26 -13 45 0 45 3 0 13 -20 23 -43z"/>
<path d="M3794 11915 c-9 -22 3 -620 17 -830 16 -249 53 -394 156 -599 47 -95
77 -132 123 -156 55 -28 64 -26 57 13 -5 32 -94 282 -122 345 -8 18 -15 42
-15 52 0 37 25 20 41 -28 55 -158 182 -407 227 -442 28 -23 72 -27 72 -7 0 29
-146 443 -194 550 -14 32 -26 68 -26 80 0 12 -13 49 -30 82 -16 33 -30 70 -30
83 0 13 -6 35 -14 50 -8 15 -17 46 -21 67 l-6 40 20 -24 c12 -13 21 -33 21
-45 0 -12 7 -32 16 -44 8 -12 26 -52 39 -90 30 -84 69 -189 100 -267 13 -33
40 -103 60 -155 50 -129 112 -272 144 -334 21 -41 31 -51 51 -51 20 0 25 5 23
25 -25 399 -28 421 -81 529 -55 110 -33 119 35 14 18 -29 38 -53 44 -53 14 0
35 55 43 113 4 26 14 64 22 83 28 66 -12 141 -162 304 -48 52 -107 120 -133
150 -25 30 -48 57 -51 60 -10 9 -285 344 -337 411 -68 86 -81 97 -89 74z"/>
<path d="M7812 11858 c-8 -8 -12 -51 -13 -117 0 -59 -3 -137 -8 -175 -6 -58
-12 -72 -34 -90 -22 -17 -37 -52 -72 -166 -102 -329 -169 -447 -385 -680 -213
-230 -325 -400 -370 -561 -24 -89 -25 -103 -4 -168 17 -52 46 -87 62 -77 6 3
15 30 22 58 48 209 165 455 283 597 86 103 226 251 238 251 25 0 -2 -38 -107
-156 -165 -184 -216 -259 -299 -449 -49 -113 -115 -411 -115 -524 0 -85 -25
-110 -48 -48 -17 46 -77 121 -108 135 -14 7 -22 17 -19 22 10 16 42 12 49 -6
3 -9 15 -14 28 -12 68 9 -9 163 -109 220 -71 40 -141 41 -218 4 -57 -29 -145
-117 -261 -263 -31 -40 -61 -73 -66 -73 -4 0 -8 -9 -8 -19 0 -23 -16 -36 -25
-21 -9 14 39 92 136 225 97 133 116 165 95 165 -25 0 -134 -89 -202 -165 -37
-41 -95 -118 -131 -172 -71 -108 -177 -318 -188 -373 -4 -19 -11 -39 -15 -45
-28 -37 -110 -356 -135 -520 -18 -120 -19 -275 -4 -395 16 -131 87 -442 125
-549 19 -53 37 -103 40 -111 14 -40 26 38 39 266 25 428 71 626 200 871 69
131 138 229 263 373 140 163 232 246 232 212 0 -4 -27 -39 -61 -76 -40 -46
-57 -72 -50 -79 6 -6 36 -5 90 3 45 8 84 10 88 6 9 -9 -29 -43 -132 -120 -112
-84 -226 -170 -241 -182 -12 -10 -9 -23 16 -85 129 -310 189 -540 150 -564
-20 -12 -81 51 -240 246 -39 47 -82 91 -96 98 -23 10 -30 9 -50 -10 -31 -29
-54 -100 -54 -165 0 -60 -20 -33 239 -320 128 -141 201 -234 201 -255 0 -4
-43 -28 -96 -54 l-97 -48 -76 33 c-180 77 -201 84 -213 72 -19 -19 5 -36 150
-107 138 -67 182 -97 182 -122 0 -27 -59 -11 -174 48 -151 76 -174 77 -193 4
-7 -27 -16 -99 -19 -158 -4 -59 -11 -110 -15 -113 -13 -8 -91 184 -119 293
-13 53 -58 78 -172 98 -23 3 -38 12 -38 20 0 7 26 31 58 52 54 36 57 40 60 84
5 84 -68 231 -180 362 -57 67 -76 105 -63 128 7 10 40 9 119 -3 26 -4 39 47
34 126 -5 62 -1 57 -85 122 -17 14 -24 26 -20 37 6 15 10 15 47 2 54 -19 76
-7 90 48 6 23 18 66 26 96 54 190 94 359 94 392 0 34 -3 39 -22 39 -35 0 -80
-32 -154 -107 -75 -78 -109 -138 -152 -273 -33 -102 -38 -144 -52 -405 -8
-152 -13 -181 -44 -276 -40 -124 -61 -169 -80 -169 -21 0 -117 109 -159 181
-20 35 -69 102 -108 149 -39 47 -75 93 -80 103 -14 24 -29 21 -29 -6 0 -39
109 -246 240 -454 37 -60 41 -107 13 -155 -16 -29 -26 -34 -68 -38 -49 -5 -50
-6 -57 -45 -4 -22 -7 -56 -8 -75 -1 -33 -7 -39 -93 -95 -181 -119 -292 -185
-313 -185 -36 0 -134 72 -262 193 -67 64 -131 121 -142 127 -32 17 -23 29 18
23 34 -6 184 -52 277 -87 22 -8 51 -15 64 -16 22 0 23 2 17 42 -16 99 -127
290 -226 389 -107 106 -324 233 -440 258 -71 15 -216 14 -275 -3 -171 -48
-200 -69 -251 -181 -14 -30 -30 -55 -35 -55 -5 0 -9 -10 -9 -22 0 -13 -12 -48
-26 -78 -44 -95 -82 -203 -93 -264 -14 -77 -14 -391 -1 -417 11 -19 11 -19 49
1 21 10 41 17 44 14 3 -3 -1 -27 -9 -53 -7 -26 -23 -92 -34 -147 -25 -124 -37
-154 -61 -154 -26 0 -32 35 -15 102 7 32 11 60 8 63 -3 3 -23 5 -44 5 -56 0
-189 -67 -273 -137 -123 -103 -176 -184 -286 -431 -17 -39 -38 -77 -46 -84 -8
-7 -68 -15 -135 -19 l-120 -8 -57 -49 c-76 -66 -155 -105 -297 -144 -214 -58
-402 -41 -524 48 -25 18 -58 46 -74 63 -17 17 -40 31 -53 31 -13 0 -68 -34
-130 -82 -132 -101 -165 -118 -222 -118 -70 0 -126 34 -237 144 -389 389 -512
710 -377 986 83 170 355 384 754 593 252 132 546 214 641 178 28 -10 279 -54
283 -49 2 2 -9 24 -24 48 -66 107 -111 187 -111 201 0 32 99 107 230 175 71
37 80 39 165 39 102 0 150 -17 223 -78 45 -38 86 -48 95 -22 7 17 70 50 115
60 30 6 37 3 83 -43 28 -28 49 -58 49 -71 0 -11 5 -21 11 -21 7 0 51 24 98 54
119 74 189 109 314 157 77 30 115 51 134 73 35 42 57 91 50 110 -7 18 3 19
-242 -14 -194 -26 -382 -42 -405 -35 -26 8 -25 38 1 92 36 74 31 78 -101 79
-102 0 -125 4 -204 32 -108 39 -391 188 -647 341 -27 16 -38 18 -41 9 -5 -11
9 -74 42 -198 32 -117 -16 -211 -202 -402 -122 -124 -235 -213 -456 -361 -305
-203 -314 -209 -727 -433 -326 -176 -399 -219 -428 -252 -11 -12 -27 -66 -42
-148 -13 -71 -31 -168 -40 -215 l-17 -86 48 -89 c27 -49 65 -116 86 -149 21
-33 44 -71 51 -85 6 -14 19 -32 27 -41 8 -9 35 -50 60 -90 25 -40 108 -168
185 -284 125 -188 154 -225 280 -353 l140 -142 40 11 c22 6 99 40 171 74 149
72 277 120 377 141 71 15 245 19 262 6 35 -25 128 -204 153 -295 23 -84 23
-461 -1 -586 -27 -142 -86 -229 -176 -259 -19 -7 -72 -12 -117 -12 l-84 0 0
-29 c0 -15 9 -80 20 -142 23 -136 65 -475 80 -649 13 -151 3 -216 -40 -278
-17 -23 -30 -45 -30 -49 0 -3 30 -38 68 -77 84 -89 120 -150 133 -225 10 -53
16 -64 58 -99 25 -22 59 -63 75 -93 26 -46 30 -66 34 -154 5 -112 -7 -185 -43
-262 -13 -29 -20 -55 -16 -57 13 -8 131 72 263 179 413 334 598 499 598 536 0
31 -27 33 -68 5 -21 -14 -43 -26 -50 -26 -7 0 -29 -15 -49 -33 -21 -18 -49
-38 -63 -45 -14 -7 -65 -37 -115 -67 -61 -38 -100 -55 -123 -55 -135 0 -336
265 -449 591 l-46 134 -1 160 c-1 145 1 164 20 200 63 117 104 201 104 212 0
11 19 54 97 220 8 18 40 60 72 94 47 50 63 61 96 66 30 4 44 1 54 -11 13 -16
42 -21 54 -10 3 3 -3 29 -13 58 -24 65 -65 223 -79 301 -16 94 -43 505 -36
557 16 118 145 230 329 287 37 11 90 21 117 21 42 0 51 -4 66 -27 22 -36 33
-43 61 -43 39 0 129 -50 160 -89 51 -63 56 -80 55 -176 -1 -97 -13 -145 -38
-145 -9 0 -55 39 -103 88 -63 63 -99 110 -132 170 -52 97 -76 130 -85 120 -4
-3 -11 -68 -16 -143 -11 -169 2 -445 24 -495 8 -19 20 -53 27 -74 18 -55 79
-149 152 -232 101 -114 150 -133 181 -69 31 64 15 160 -39 251 -47 77 -43 96
21 109 43 10 53 16 72 51 30 55 49 156 73 394 12 113 28 237 37 275 29 128
102 285 134 285 15 0 10 -33 -9 -65 -29 -47 -64 -147 -64 -183 0 -47 25 -79
72 -92 21 -6 41 -14 44 -19 3 -4 -14 -57 -38 -117 -23 -60 -60 -154 -81 -209
-21 -55 -51 -130 -66 -167 -15 -37 -31 -87 -34 -111 -6 -40 -4 -46 25 -70 17
-15 41 -27 52 -27 13 0 57 36 115 94 103 103 152 141 210 162 54 19 189 18
249 -3 53 -18 244 -119 311 -164 23 -16 46 -29 52 -29 6 0 26 -14 45 -30 48
-43 146 -100 170 -100 12 0 44 21 71 46 56 51 169 128 224 152 29 13 81 17
259 20 170 3 224 7 228 16 3 8 -8 35 -24 62 -32 56 -87 161 -252 489 l-116
230 -75 38 c-66 34 -88 40 -186 49 -259 24 -422 -37 -532 -202 -39 -57 -109
-205 -132 -275 -23 -73 -67 -162 -83 -168 -23 -9 -62 8 -80 35 -9 13 -18 56
-22 96 -7 68 -8 71 -29 66 -21 -5 -23 -2 -30 58 -7 64 -28 121 -95 263 -67
142 -80 174 -80 194 0 38 30 22 51 -26 49 -119 78 -152 152 -177 100 -33 171
-20 374 73 220 100 268 114 424 119 151 5 218 -5 291 -43 26 -14 56 -25 67
-25 10 0 39 25 67 58 131 157 241 221 410 238 35 4 66 10 69 14 10 16 -120
294 -181 385 -38 58 -130 152 -156 161 -28 8 -21 33 13 52 18 9 51 32 75 50
25 17 46 32 49 32 3 0 40 20 83 44 97 56 144 64 208 37 48 -20 164 -41 223
-41 38 0 39 14 10 114 -29 97 -47 125 -85 132 -43 8 -49 27 -17 64 20 24 24
37 19 63 -18 86 -18 93 3 117 l21 25 19 -23 c19 -22 191 -527 191 -560 0 -9 7
-30 15 -45 8 -16 23 -57 34 -90 45 -148 87 -212 240 -371 145 -151 421 -424
512 -506 83 -75 90 -79 165 -96 43 -9 110 -17 149 -18 131 -1 197 47 589 427
136 132 266 265 287 294 37 50 159 337 159 373 0 9 7 25 15 36 8 10 15 33 15
49 0 17 7 40 15 52 8 12 31 68 51 125 20 57 51 141 69 188 65 163 62 210 -11
210 -53 0 -54 22 -7 110 57 106 36 136 -63 91 -52 -24 -78 -58 -149 -196 -71
-136 -117 -200 -152 -212 -16 -5 -55 -19 -88 -30 -33 -12 -112 -42 -175 -68
-63 -25 -137 -56 -165 -67 -138 -56 -185 -69 -206 -58 -14 8 -18 17 -13 28 14
35 15 60 2 71 -7 6 -24 20 -38 30 l-25 20 50 51 c28 28 92 84 144 123 52 40
122 95 155 123 34 27 99 79 145 115 46 35 107 82 135 103 216 167 382 288 411
300 53 23 97 5 172 -69 60 -58 65 -65 58 -94 -4 -17 -22 -57 -41 -89 -49 -81
-97 -179 -93 -191 2 -5 28 2 59 16 311 147 421 213 511 310 113 121 176 232
225 393 29 95 29 95 29 370 -1 264 -2 277 -23 325 -28 60 -55 91 -104 116 -39
20 -88 25 -88 10 0 -5 20 -51 45 -103 24 -51 51 -120 60 -153 16 -65 21 -220
6 -229 -10 -7 -17 19 -26 109 -14 131 -45 225 -88 273 -27 29 -39 28 -76 -7
-36 -34 -38 -51 -11 -106 32 -66 22 -105 -12 -47 -9 15 -27 38 -41 50 l-25 24
-89 -80 c-95 -85 -213 -213 -213 -231 0 -6 17 -22 38 -35 96 -64 115 -97 120
-207 6 -130 -16 -241 -76 -369 -27 -60 -51 -92 -62 -85 -4 3 -5 94 -2 203 5
218 0 262 -49 371 -16 35 -29 74 -29 86 0 12 15 43 34 69 45 63 410 441 447
463 16 10 29 26 29 37 0 11 11 36 25 56 29 42 85 251 85 318 0 60 -17 51 -58
-29 -17 -35 -38 -69 -46 -74 -7 -6 -16 -20 -20 -32 -24 -74 -376 -483 -416
-483 -14 0 25 50 121 155 200 217 292 362 407 635 71 167 86 303 100 870 8
320 6 420 -8 420 -4 0 -51 -75 -103 -167 -53 -93 -115 -193 -139 -224 -24 -31
-56 -73 -73 -95 -34 -45 -219 -267 -252 -303 -37 -41 -75 -119 -71 -149 4 -39
49 -43 83 -6 26 28 126 177 229 342 56 88 85 117 70 70 -22 -72 -179 -325
-262 -423 -77 -90 -101 -134 -128 -237 -31 -116 -64 -200 -118 -303 -49 -92
-144 -241 -193 -301 -18 -23 -33 -46 -33 -51 0 -6 -7 -17 -16 -24 -9 -7 -20
-22 -25 -34 -5 -11 -21 -35 -34 -54 -27 -36 -32 -61 -14 -61 20 0 76 39 92 64
9 13 53 66 99 118 349 396 390 439 405 425 4 -5 -111 -138 -256 -297 -59 -64
-144 -158 -191 -210 -138 -154 -254 -272 -258 -261 -5 16 27 120 54 173 13 26
72 122 132 213 59 91 120 186 137 212 56 90 144 279 166 359 21 77 21 85 10
279 -7 110 -15 203 -17 207 -25 41 -49 -57 -74 -302 -31 -299 -65 -400 -187
-568 -101 -137 -393 -454 -393 -425 0 12 110 142 222 261 115 122 219 286 257
402 18 58 67 395 91 635 11 109 11 292 1 360 -13 78 -92 364 -152 552 -32 97
-47 121 -67 101z m-96 -1731 c-8 -29 -27 -69 -40 -88 -14 -19 -30 -44 -35 -56
-6 -13 -15 -23 -21 -23 -5 0 -10 -6 -10 -13 0 -8 -42 -65 -92 -129 -94 -116
-148 -187 -181 -240 -21 -31 -35 -36 -44 -12 -3 9 5 26 19 42 14 15 45 54 69
87 24 33 83 108 130 166 48 58 90 115 93 126 4 12 13 23 20 26 7 3 24 31 36
64 51 125 87 158 56 50z m-1136 -448 c0 -6 -69 -81 -153 -168 -84 -86 -176
-185 -204 -221 -28 -36 -63 -77 -77 -91 -14 -15 -26 -34 -26 -43 0 -9 -4 -16
-8 -16 -5 0 -14 -12 -20 -26 -11 -22 -32 -26 -32 -5 0 23 140 214 222 302 74
80 284 279 296 279 1 0 2 -5 2 -11z m890 -1099 c12 -9 8 -16 -25 -45 -22 -20
-69 -52 -105 -72 -92 -51 -201 -135 -298 -227 -59 -57 -86 -76 -93 -69 -7 7
-10 42 -8 91 6 116 13 122 291 246 88 39 201 83 218 85 3 0 12 -4 20 -9z
m-766 -624 c21 -34 52 -41 82 -21 37 24 49 14 67 -52 39 -136 9 -225 -79 -239
-59 -9 -134 0 -145 17 -18 29 -3 231 22 296 11 30 33 29 53 -1z m-2596 -133
c67 -21 122 -42 122 -46 0 -5 -25 -6 -56 -2 -154 19 -245 21 -269 5 -40 -26
-97 -72 -195 -155 -124 -106 -155 -128 -171 -123 -30 10 162 183 326 295 33
22 107 63 115 63 3 0 60 -17 128 -37z m3616 -39 c24 -9 20 -43 -6 -48 -13 -3
-61 -10 -108 -16 -47 -5 -113 -20 -148 -31 -66 -22 -84 -20 -66 8 13 21 21 25
119 62 77 29 169 40 209 25z m-877 -459 c18 -41 23 -63 17 -83 -4 -15 -8 -40
-9 -55 -2 -40 -18 -47 -108 -47 -75 0 -78 1 -75 22 2 17 14 25 47 35 24 7 46
14 47 16 2 2 9 30 14 63 22 127 29 131 67 49z m-460 -112 c3 -7 -7 -15 -21
-19 -54 -13 -39 -65 28 -95 90 -40 443 -68 554 -44 74 16 148 56 157 86 4 11
12 18 18 16 23 -8 10 -217 -13 -217 -6 0 -10 20 -10 44 0 25 -4 48 -10 51 -14
9 -47 -50 -61 -109 -27 -117 -100 -214 -174 -235 -81 -22 -288 -2 -332 32 -30
24 -83 131 -83 169 0 50 -21 127 -43 154 l-21 27 -18 -23 c-10 -12 -18 -34
-18 -48 0 -43 -17 -12 -34 61 -22 93 -21 104 14 139 30 29 60 34 67 11z"/>
<path d="M10025 11120 c-10 -11 -68 -58 -129 -104 -62 -47 -120 -94 -131 -105
-10 -12 -24 -21 -31 -21 -7 0 -29 -13 -47 -30 -19 -16 -39 -30 -45 -30 -14 0
-266 -189 -367 -274 -43 -38 -109 -89 -145 -114 -239 -169 -290 -220 -303
-304 -9 -61 -3 -60 130 29 44 31 86 54 92 52 7 -3 -23 -36 -66 -74 -156 -139
-233 -247 -233 -327 0 -34 5 -41 55 -79 59 -44 107 -113 125 -178 14 -52 40
-54 96 -10 84 67 99 58 32 -18 -106 -120 -144 -193 -99 -193 49 0 146 69 292
209 82 79 152 141 155 139 11 -11 -80 -110 -222 -241 -82 -77 -170 -161 -195
-188 l-46 -50 -6 -117 c-4 -78 -14 -149 -31 -212 -32 -118 -32 -128 -1 -142
33 -15 32 -33 -2 -55 -34 -20 -123 -104 -123 -115 0 -18 35 -5 93 34 56 38
134 95 147 108 3 3 30 24 61 47 178 132 599 530 599 566 0 11 -19 10 -105 -4
-117 -20 -216 -59 -247 -98 l-20 -26 22 -3 c13 -2 49 10 81 27 68 36 69 36 69
17 0 -8 -48 -40 -107 -72 -112 -59 -231 -141 -294 -201 -44 -42 -61 -29 -27
20 19 27 127 151 206 236 12 13 32 41 44 60 12 20 25 38 29 41 13 10 142 166
157 190 9 14 30 41 48 60 79 85 274 447 308 570 8 30 33 106 55 168 23 62 41
124 41 136 0 13 6 29 14 35 7 6 16 28 20 49 3 20 12 49 20 64 9 18 11 30 5 34
-10 6 -21 -1 -97 -69 -24 -22 -46 -37 -48 -34 -7 7 21 61 40 76 9 8 16 24 16
36 0 12 7 28 16 36 9 7 29 40 46 73 17 34 39 70 50 82 28 32 62 124 44 124
-28 0 -123 -90 -326 -310 -316 -341 -410 -433 -410 -401 0 13 31 49 225 261
302 329 525 596 525 629 0 18 -36 12 -55 -9z"/>
<path d="M3826 10311 c-6 -9 12 -55 64 -166 31 -66 66 -142 130 -285 100 -225
122 -269 164 -349 58 -107 111 -175 205 -263 158 -147 267 -226 297 -214 20 8
17 65 -5 102 -10 16 -108 126 -217 243 -184 198 -246 271 -229 271 4 0 95 -85
203 -190 108 -104 201 -190 208 -190 20 0 32 48 59 243 18 136 23 192 15 206
-5 11 -56 56 -113 101 -188 149 -206 165 -207 178 0 15 79 -27 120 -63 14 -12
55 -43 91 -68 37 -26 72 -54 79 -62 13 -16 60 -21 60 -6 0 4 -8 19 -19 32 -10
13 -32 55 -49 92 -17 37 -41 81 -53 98 -39 55 -133 100 -344 164 -66 20 -189
59 -274 86 -162 51 -176 55 -185 40z"/>
<path d="M5214 10144 c-88 -59 -243 -201 -278 -254 -72 -111 -136 -229 -136
-252 0 -7 -8 -26 -17 -43 -15 -26 -18 -59 -18 -240 0 -200 1 -214 27 -300 15
-49 37 -130 49 -178 12 -49 27 -94 34 -101 7 -7 27 -41 45 -77 78 -156 211
-295 346 -362 46 -22 86 -38 90 -35 3 4 -8 44 -25 90 -49 134 -103 372 -108
473 -4 81 -2 100 27 190 49 151 116 266 232 394 32 36 61 74 64 87 6 25 -76
200 -114 241 -22 24 -23 24 -50 7 -15 -9 -62 -52 -105 -95 -43 -44 -83 -79
-88 -79 -12 0 -12 17 0 22 5 2 37 35 71 73 35 39 77 86 94 105 48 53 48 54 22
123 -13 35 -29 90 -36 123 -14 67 -43 114 -69 114 -10 0 -36 -12 -57 -26z"/>
<path d="M4206 8992 c-3 -6 19 -32 51 -59 31 -26 73 -62 92 -79 108 -95 329
-245 417 -285 27 -12 60 -27 74 -34 60 -29 64 9 16 133 -70 176 -123 281 -148
287 -118 28 -490 55 -502 37z"/>
<path d="M7940 8561 c-53 -28 -133 -85 -285 -201 -76 -58 -163 -124 -194 -147
-116 -86 -226 -170 -302 -230 -43 -35 -82 -63 -87 -63 -5 0 -14 -11 -20 -25
-14 -31 2 -44 26 -20 42 41 568 339 618 350 l29 6 -30 -26 c-16 -15 -49 -36
-72 -46 -24 -11 -43 -24 -43 -29 0 -4 -19 -18 -42 -29 -78 -38 -139 -93 -182
-165 -53 -87 -76 -100 -196 -106 -92 -5 -95 -6 -108 -33 -12 -24 -11 -31 2
-53 26 -39 12 -43 396 109 120 47 163 69 190 97 21 22 62 94 105 183 77 164
76 162 220 202 133 36 163 62 151 130 -9 48 -75 115 -113 115 -16 -1 -44 -9
-63 -19z"/>
<path d="M8555 8301 c-3 -16 -13 -32 -21 -35 -8 -3 -14 -13 -14 -23 0 -36 -99
-182 -220 -324 -68 -80 -116 -123 -196 -178 -47 -31 -66 -52 -78 -82 -9 -23
-28 -56 -41 -74 -14 -17 -25 -42 -25 -54 0 -23 0 -23 53 8 28 17 114 63 189
102 76 40 148 82 160 93 l22 21 -39 11 c-21 6 -40 15 -42 21 -2 5 21 31 51 57
65 55 114 141 180 315 44 116 56 171 37 171 -5 0 -12 -13 -16 -29z"/>
<path d="M6070 8261 c-19 -36 -11 -86 19 -129 28 -37 268 -226 329 -258 32
-16 52 -18 52 -4 0 6 -44 56 -98 113 -54 56 -138 146 -186 200 -48 53 -92 97
-96 97 -5 0 -14 -9 -20 -19z"/>
<path d="M8413 8225 c-65 -111 -91 -140 -213 -244 -129 -111 -152 -140 -130
-166 20 -24 38 -18 100 30 138 106 322 377 282 417 -8 8 -18 -2 -39 -37z"/>
<path d="M3325 8224 c-10 -8 -30 -14 -45 -14 -14 0 -36 -7 -48 -16 -12 -8 -45
-22 -73 -30 -56 -17 -298 -138 -314 -158 -5 -7 -30 -26 -55 -43 -69 -47 -81
-65 -93 -142 -20 -130 33 -420 98 -537 39 -70 41 -76 21 -68 -24 9 -90 104
-125 179 -33 71 -44 132 -56 306 -4 47 -10 92 -15 100 -12 18 -24 6 -135 -136
-132 -170 -177 -276 -176 -421 0 -89 13 -140 58 -227 67 -127 157 -180 262
-152 65 17 92 35 255 175 132 113 235 175 311 187 44 7 44 17 6 121 -40 109
-44 167 -27 318 32 270 77 441 135 503 44 48 52 59 44 64 -5 3 -17 -1 -28 -9z"/>
<path d="M10390 8083 c-127 -15 -313 -97 -545 -241 -27 -17 -63 -39 -80 -48
-66 -37 -225 -145 -225 -154 0 -18 22 -21 207 -30 181 -9 284 -26 328 -54 11
-7 44 -22 73 -35 170 -71 311 -223 445 -478 70 -133 78 -138 182 -127 143 15
264 76 375 188 41 42 78 76 83 76 13 0 -39 -87 -85 -141 -21 -26 -38 -51 -38
-57 0 -5 -13 -26 -30 -47 -29 -36 -39 -65 -22 -65 8 0 143 99 164 121 43 44
149 214 171 274 14 39 33 88 43 110 12 29 18 68 18 142 l1 102 -35 36 c-19 20
-64 57 -100 82 -36 26 -96 70 -135 99 -38 29 -119 77 -180 108 -118 59 -285
120 -297 108 -7 -7 8 -48 87 -238 19 -45 41 -119 49 -166 14 -79 14 -95 -4
-208 -10 -67 -21 -124 -24 -127 -16 -17 -18 16 -7 101 8 57 10 119 6 157 -12
107 -72 276 -141 403 -25 45 -91 103 -125 110 -32 6 -98 6 -159 -1z"/>
<path d="M6033 7953 c4 -20 12 -42 19 -49 17 -18 214 -123 258 -139 30 -10 41
-10 62 1 39 21 42 42 9 73 -34 32 -91 51 -150 51 -55 0 -98 20 -140 64 -46 48
-66 48 -58 -1z"/>
<path d="M8075 7489 c-100 -41 -180 -126 -224 -237 -58 -147 -70 -162 -381
-476 -326 -329 -343 -348 -338 -374 5 -26 56 -27 103 -3 22 11 85 37 140 57
150 54 240 118 433 307 306 299 439 460 501 606 28 67 20 90 -41 120 -56 27
-127 27 -193 0z"/>
<path d="M9660 7483 c-25 -16 -125 -107 -223 -201 -235 -228 -364 -323 -454
-338 -58 -9 -75 -42 -118 -220 -75 -314 -108 -509 -125 -735 -14 -177 -2 -279
50 -443 33 -103 44 -126 60 -126 10 0 65 11 122 25 57 14 119 25 138 25 31 0
33 -1 19 -16 -9 -8 -43 -21 -75 -29 -80 -18 -315 -122 -387 -169 -78 -52 -206
-191 -281 -306 -85 -129 -149 -248 -143 -264 8 -20 102 -33 397 -56 360 -27
381 -33 619 -162 143 -77 174 -88 212 -68 10 6 38 15 61 20 73 15 128 37 275
112 218 111 207 92 -87 -160 -80 -68 -146 -127 -148 -131 -1 -4 55 -79 125
-166 71 -88 145 -184 165 -212 42 -59 110 -189 128 -245 9 -31 18 -39 49 -48
56 -15 189 12 306 62 39 17 84 36 100 43 36 15 268 176 308 214 45 41 116 147
174 260 58 114 72 155 103 304 20 95 20 103 5 221 -24 187 -84 438 -144 599
-28 77 -28 143 3 320 30 172 32 242 10 318 -23 76 -46 117 -94 167 -47 48 -67
52 -80 17 -5 -14 -13 -25 -18 -25 -5 0 -16 -17 -26 -37 -10 -21 -62 -112 -116
-203 -142 -241 -137 -229 -115 -282 10 -26 -13 -23 -98 12 -228 93 -394 107
-647 52 -242 -53 -367 -119 -563 -298 -56 -52 -106 -94 -110 -94 -13 0 23 56
72 113 24 29 55 68 67 87 15 22 39 41 61 49 21 8 49 21 63 31 34 23 172 84
240 105 30 10 69 24 87 31 101 42 357 60 578 40 l100 -9 51 39 c65 50 165 162
212 239 l37 60 3 145 c6 250 -34 601 -89 790 -50 168 -139 345 -203 403 -87
78 -326 153 -521 164 -86 5 -92 4 -135 -24z"/>
<path d="M5193 7403 c2 -5 67 -137 145 -295 154 -314 195 -382 272 -451 52
-47 227 -138 330 -172 74 -25 504 -133 509 -129 22 19 -151 201 -404 426 -228
201 -252 229 -335 377 -41 73 -84 139 -95 146 -29 19 -352 105 -393 105 -18 0
-31 -3 -29 -7z"/>
<path d="M11229 6941 c-184 -120 -201 -131 -366 -212 l-163 -80 0 -173 0 -172
129 -172 c138 -184 215 -322 231 -415 5 -29 16 -134 25 -234 16 -184 51 -390
85 -498 59 -190 71 -336 36 -470 -25 -97 -169 -385 -256 -512 -109 -160 -441
-516 -650 -699 -30 -26 -95 -87 -145 -136 l-90 -88 33 -30 c21 -20 43 -30 63
-30 31 0 180 56 274 103 247 124 396 185 525 216 73 18 90 26 118 58 28 32
103 174 154 293 62 141 142 449 161 616 15 128 26 157 81 222 77 93 73 185
-15 380 -22 49 -35 66 -59 75 -37 14 -38 29 -10 217 12 80 23 217 27 338 5
180 4 202 -10 202 -24 0 -76 -69 -94 -127 -12 -39 -22 -53 -35 -53 -28 0 -32
25 -20 114 13 99 64 242 172 484 40 89 42 96 42 195 -1 94 -18 263 -43 412
-13 79 -70 245 -85 245 -6 0 -58 -31 -115 -69z"/>
<path d="M4739 6448 c-11 -39 14 -149 56 -243 69 -155 102 -224 126 -265 15
-25 38 -66 53 -92 39 -69 134 -168 168 -175 54 -11 44 -46 -17 -57 -63 -12
-85 -81 -42 -131 12 -14 54 -45 92 -68 47 -29 71 -49 73 -64 5 -34 -52 -45
-161 -32 l-88 12 -100 -100 c-132 -133 -173 -145 -324 -93 -70 24 -354 171
-455 235 -19 12 -72 44 -118 71 -45 27 -111 66 -145 86 -182 108 -215 119
-282 89 -25 -11 -48 -26 -50 -34 -3 -7 10 -56 30 -108 28 -72 37 -114 41 -179
7 -112 9 -121 39 -156 36 -41 58 -124 53 -195 -5 -69 -24 -94 -129 -168 -168
-119 -174 -136 -82 -223 44 -40 100 -68 140 -68 57 0 219 130 270 217 27 46
53 183 53 281 0 51 12 68 24 35 4 -9 9 -53 12 -98 3 -44 10 -93 15 -110 9 -27
7 -33 -18 -53 l-28 -23 45 -40 c53 -47 163 -114 221 -134 59 -21 131 -19 184
6 24 12 79 52 122 90 71 63 93 78 93 63 0 -11 -59 -90 -87 -115 -48 -44 -162
-99 -242 -117 -75 -18 -76 -18 -112 -73 -68 -102 -189 -198 -334 -264 -198
-91 -265 -125 -265 -132 0 -8 48 -27 110 -43 19 -5 40 -16 46 -24 6 -9 19 -16
28 -16 55 0 170 -102 187 -165 6 -22 15 -43 20 -46 6 -3 12 -39 15 -80 8 -112
10 -117 48 -127 36 -11 111 -1 149 19 71 38 147 127 147 173 0 11 10 44 22 74
20 48 21 59 11 126 -5 40 -22 98 -35 128 -34 73 -21 96 21 38 36 -50 46 -90
45 -185 -2 -180 -62 -301 -196 -393 -58 -40 -61 -61 -13 -113 19 -22 35 -43
35 -47 0 -5 -24 -21 -52 -37 -99 -52 -96 -46 -90 -204 5 -153 -6 -253 -44
-405 -14 -55 -24 -119 -22 -144 3 -44 5 -46 45 -59 33 -11 44 -21 53 -47 6
-19 19 -41 29 -50 25 -22 167 -58 220 -54 68 5 71 -11 27 -128 -48 -128 -56
-161 -46 -190 14 -35 49 -71 102 -105 39 -26 51 -29 63 -19 24 20 45 108 45
190 0 64 -5 86 -26 126 -14 27 -32 56 -40 65 -17 19 -18 39 -3 39 16 0 68 -58
90 -103 25 -49 26 -141 4 -282 -15 -94 -15 -100 1 -112 39 -29 156 20 192 79
62 101 68 257 16 369 -31 65 -100 167 -178 264 -51 62 -51 62 -108 109 -27 21
-48 43 -48 49 0 6 12 24 28 40 25 26 27 36 30 118 2 49 8 89 12 89 4 0 23 -29
41 -65 19 -36 37 -65 41 -65 5 0 21 19 38 42 30 41 40 70 56 163 7 37 14 51
28 53 17 4 18 -1 13 -54 -8 -81 -37 -164 -75 -212 -36 -46 -34 -65 10 -83 26
-11 47 -8 161 20 88 22 140 40 156 54 41 38 87 120 125 222 l37 99 2 236 c0
162 -3 249 -12 279 -20 71 -30 147 -41 311 -7 123 -7 167 4 215 24 103 120
334 146 350 17 10 12 -8 -39 -147 -64 -175 -72 -219 -72 -368 1 -144 3 -168
38 -345 21 -106 26 -160 26 -290 0 -197 -23 -322 -79 -430 -57 -109 -129 -199
-171 -216 -36 -14 -27 -39 36 -100 97 -95 123 -103 458 -154 l163 -25 69 19
c79 22 128 52 252 158 93 78 139 127 139 148 0 7 7 16 15 19 37 14 73 164 80
327 l4 108 -82 42 c-93 47 -182 113 -228 167 -62 75 -99 238 -99 445 0 163 39
313 114 442 158 267 213 371 232 435 8 27 23 59 34 72 l19 23 1 -22 c0 -51
-63 -199 -157 -361 -29 -51 -53 -96 -53 -99 0 -4 -8 -16 -18 -27 -10 -12 -41
-73 -68 -136 l-49 -115 0 -235 0 -235 33 -75 c56 -127 145 -197 334 -261 56
-19 63 -19 112 -5 159 47 321 150 457 292 122 128 139 165 205 439 13 55 24
114 24 132 0 27 -4 32 -30 38 -16 4 -30 11 -30 16 0 5 -10 13 -23 18 -49 19
-124 74 -175 129 -57 61 -142 195 -142 225 0 34 25 12 55 -50 39 -78 124 -192
171 -228 103 -78 284 -72 366 12 49 51 58 90 45 197 -8 65 -8 89 1 98 9 9 12
8 12 -5 0 -9 8 -21 19 -26 10 -6 22 -26 25 -45 13 -71 142 -235 221 -282 35
-20 57 -25 115 -25 78 0 93 6 153 66 49 49 50 81 2 101 -19 7 -45 14 -58 14
-71 0 -136 90 -167 229 -22 100 -20 153 7 224 22 56 37 47 27 -15 -14 -88 -10
-208 10 -261 25 -64 81 -109 146 -115 66 -6 74 11 67 140 -6 119 -24 161 -108
253 -60 66 -74 94 -41 80 91 -39 145 -27 150 35 6 70 -94 176 -195 206 -26 8
-88 14 -138 14 -98 0 -158 -14 -373 -86 -56 -19 -110 -34 -120 -34 -10 0 -26
-6 -37 -14 -11 -7 -40 -18 -65 -24 -25 -6 -76 -21 -115 -35 -100 -35 -197 -51
-263 -43 -62 7 -67 9 -202 88 -143 83 -179 100 -201 93 -12 -4 -19 -15 -19
-33 -1 -108 -167 -483 -315 -712 -62 -95 -123 -222 -142 -293 -16 -63 -16 -87
3 -374 5 -71 4 -103 -4 -103 -6 0 -13 12 -16 28 -23 118 -29 178 -30 328 -1
144 2 175 15 190 30 35 221 378 295 529 120 243 127 267 127 414 l-1 126 -50
101 c-54 108 -98 164 -129 164 -11 0 -46 -17 -79 -38 -95 -61 -125 -64 -63 -6
50 46 69 98 69 189 0 87 -20 179 -44 203 -13 14 -21 10 -70 -32 -31 -26 -56
-44 -56 -39 0 4 17 35 37 68 42 68 45 101 19 187 -24 81 -37 91 -103 83 -90
-11 -232 -63 -328 -120 -115 -68 -143 -81 -155 -69 -14 14 91 88 198 140 102
50 172 74 215 74 57 0 44 57 -31 136 -98 101 -220 103 -325 5 -69 -63 -87
-107 -87 -208 0 -87 -8 -100 -36 -57 -19 28 -24 132 -11 201 8 40 7 43 -42 97
-87 97 -176 171 -182 154z"/>
<path d="M5620 6203 c0 -14 6 -34 13 -42 7 -9 19 -45 26 -81 7 -36 20 -83 30
-105 10 -22 27 -69 39 -105 37 -117 70 -184 104 -213 18 -16 92 -57 163 -92
139 -68 175 -81 175 -68 0 19 -80 242 -110 308 -80 172 -174 275 -355 387 -71
45 -85 47 -85 11z"/>
<path d="M14846 5393 c-7 -16 -24 -77 -36 -138 -12 -60 -28 -128 -35 -150 -8
-22 -23 -78 -35 -125 -12 -47 -30 -100 -41 -118 -10 -18 -19 -38 -19 -44 0
-12 -116 -224 -162 -297 -28 -44 -35 -75 -20 -85 4 -2 32 2 62 10 79 20 107
18 137 -12 23 -23 25 -31 20 -74 -15 -128 -139 -261 -452 -486 -179 -129 -228
-162 -297 -199 -27 -14 -48 -30 -48 -35 0 -5 -16 -17 -36 -25 -20 -8 -62 -30
-93 -49 -31 -19 -76 -42 -101 -52 -25 -10 -49 -24 -53 -31 -4 -7 -14 -13 -22
-13 -8 0 -44 -13 -80 -30 -36 -16 -72 -30 -79 -30 -8 0 -33 -9 -57 -20 -52
-23 -116 -26 -145 -5 -12 8 -27 28 -34 45 -24 57 -50 24 -50 -64 0 -53 -10
-56 -169 -56 -229 0 -373 21 -481 67 -158 68 -237 133 -306 253 -49 86 -67
105 -86 94 -7 -4 -100 -73 -206 -153 -403 -305 -488 -353 -764 -437 -107 -32
-110 -43 -30 -109 90 -76 152 -138 168 -167 13 -25 13 -32 -1 -57 -8 -17 -20
-33 -25 -36 -6 -4 -22 -31 -35 -61 -38 -85 -47 -87 -355 -81 -270 5 -380 19
-556 70 -275 79 -503 353 -534 643 -17 152 -21 166 -55 185 -30 17 -230 55
-352 66 -74 7 -78 0 -30 -54 44 -49 112 -163 133 -222 8 -25 23 -62 31 -81 44
-100 146 -564 212 -960 50 -302 73 -440 84 -500 l12 -65 125 -25 c145 -30 193
-52 272 -127 68 -65 108 -137 110 -198 3 -49 -13 -72 -74 -111 -21 -14 -38
-28 -38 -33 0 -13 91 -29 283 -51 347 -39 668 -99 877 -165 41 -13 136 -42
210 -65 74 -23 174 -55 221 -71 139 -47 442 -122 858 -214 62 -14 121 -30 131
-35 20 -11 80 -14 80 -4 0 3 -13 22 -29 42 -17 20 -44 70 -62 111 -26 63 -30
84 -27 135 10 146 116 276 266 327 80 27 132 51 132 59 0 9 -122 42 -215 60
-33 6 -102 20 -153 32 -86 19 -94 19 -111 4 -28 -26 -43 -91 -51 -232 -4 -72
-13 -140 -19 -152 -11 -21 -58 -39 -161 -63 -35 -8 -123 -13 -240 -13 -176 1
-190 2 -295 32 -239 67 -444 162 -583 270 -41 31 -90 69 -109 85 -48 37 -70
35 -81 -5 -7 -30 -12 -33 -50 -36 -45 -3 -200 39 -294 81 -167 74 -368 257
-445 402 -52 99 -93 243 -93 325 0 119 66 204 190 244 160 52 130 49 519 48
l366 0 254 -52 c139 -28 255 -49 258 -46 7 7 -28 53 -117 151 -40 44 -88 104
-109 134 l-36 54 0 112 c0 110 0 112 39 186 76 145 168 236 268 264 68 19 240
22 328 5 144 -27 264 -74 343 -132 28 -21 60 -38 73 -38 31 0 83 20 217 85
132 63 244 105 263 98 24 -9 63 -70 75 -117 6 -25 15 -46 20 -46 4 0 11 21 14
48 11 82 35 141 72 177 20 19 44 35 54 35 10 0 33 9 51 19 18 10 87 30 153 44
340 72 546 130 591 168 5 4 48 16 94 25 78 16 90 16 196 0 63 -10 118 -15 123
-12 5 4 24 68 42 143 56 239 98 341 187 452 20 25 44 53 53 61 62 59 149 167
149 186 0 12 -7 41 -16 65 -12 33 -16 80 -15 189 0 80 -2 152 -5 161 -2 9 -18
22 -34 29 -50 21 -55 56 -41 328 6 130 11 247 11 260 0 31 -26 28 -44 -5z"/>
<path d="M3529 5081 c-70 -22 -146 -82 -170 -135 -20 -44 -25 -130 -9 -170 13
-35 67 -50 95 -26 11 9 43 31 72 49 28 17 72 54 97 81 39 42 46 55 46 90 0 22
-9 59 -20 80 -18 35 -25 40 -53 39 -17 0 -44 -4 -58 -8z"/>
<path d="M3007 4993 c-12 -12 -7 -112 9 -191 22 -106 71 -214 156 -340 144
-216 212 -273 350 -297 36 -6 38 -4 53 32 28 65 54 171 48 193 -3 11 -24 30
-47 42 -82 41 -226 171 -226 204 0 6 -72 86 -160 179 -88 93 -160 173 -160
177 0 10 -14 11 -23 1z"/>
<path d="M7495 3981 c-66 -39 -149 -103 -149 -116 -1 -16 93 -17 164 -2 103
23 283 77 309 94 22 14 22 16 7 31 -14 14 -42 18 -149 20 -131 3 -132 2 -182
-27z"/>
<path d="M8275 3954 c-250 -24 -329 -35 -400 -59 -260 -86 -314 -98 -550 -120
-266 -26 -296 -34 -394 -109 -156 -121 -202 -207 -246 -471 -9 -55 -26 -130
-36 -167 -20 -69 -39 -89 -39 -42 0 36 -28 92 -50 99 -27 9 -65 -10 -148 -73
-187 -140 -330 -307 -371 -432 -37 -112 -62 -285 -68 -460 -6 -195 6 -260 66
-356 61 -96 157 -210 191 -224 43 -18 102 -7 157 29 46 31 83 40 83 21 0 -5
-5 -10 -10 -10 -6 0 -15 -12 -21 -26 -5 -15 -22 -43 -38 -63 -63 -80 -104
-192 -117 -323 -8 -77 2 -98 45 -98 44 -1 221 -89 221 -111 0 -14 -39 -16 -76
-3 -39 14 -171 19 -211 8 -33 -9 -50 -59 -33 -98 7 -17 15 -48 18 -70 7 -57
-14 -44 -76 50 -29 43 -70 96 -90 118 -141 148 -349 177 -535 76 -83 -46 -111
-91 -115 -190 -4 -75 -3 -78 25 -97 49 -35 69 -36 129 -9 30 14 69 35 85 47
17 12 33 18 36 15 11 -11 -69 -85 -113 -107 -75 -36 -78 -59 -13 -113 35 -30
58 -32 99 -11 15 8 70 24 120 35 116 26 133 34 124 63 -12 40 -54 86 -104 113
-57 31 -63 44 -21 44 31 0 103 -49 147 -98 32 -37 37 -69 24 -143 -6 -34 -9
-78 -5 -96 8 -43 125 -169 180 -194 48 -22 137 -25 173 -5 15 8 47 24 72 36
66 31 156 83 182 106 35 31 99 61 142 67 22 4 62 17 90 31 52 25 123 45 163
46 28 0 84 -49 126 -109 30 -44 32 -50 38 -181 l6 -134 50 -46 c27 -25 75 -58
108 -75 51 -25 69 -29 143 -29 114 0 118 5 127 161 8 125 -5 412 -30 643 -19
178 -19 351 1 448 18 87 87 238 135 296 37 44 144 126 165 126 24 0 15 -30
-11 -40 -33 -13 -123 -96 -141 -132 -19 -37 -19 -189 0 -231 8 -18 24 -58 35
-91 27 -77 46 -104 78 -112 25 -7 38 -2 126 42 34 16 47 18 47 4 0 -5 -17 -18
-39 -29 -47 -24 -85 -68 -101 -117 -10 -31 -10 -38 4 -52 15 -15 20 -14 71 11
73 36 178 54 241 41 87 -17 64 -32 -53 -36 -137 -4 -186 -26 -253 -112 l-45
-58 0 -92 c1 -96 10 -125 62 -193 30 -41 40 -41 48 -3 7 33 58 90 81 90 19 0
177 80 234 119 25 17 52 31 61 31 22 0 125 -90 138 -120 5 -14 11 -65 13 -115
4 -82 7 -96 41 -155 43 -76 107 -162 125 -168 13 -4 64 100 77 157 9 43 -42
268 -102 451 -189 571 -233 720 -240 800 -3 36 -11 90 -19 120 l-13 55 36 38
c33 33 37 42 35 84 -1 25 -9 56 -17 69 -19 29 -19 54 0 54 13 0 175 -177 247
-270 35 -44 51 -36 82 42 33 81 79 138 213 269 118 114 177 155 208 143 24
-10 13 -25 -29 -39 -42 -15 -100 -65 -89 -76 5 -4 37 -15 73 -24 151 -39 222
-80 370 -214 156 -142 196 -170 169 -120 -20 39 -251 291 -464 508 -194 197
-216 216 -290 253 -86 42 -105 59 -105 95 0 13 -10 45 -21 71 -30 66 -99 263
-99 285 0 38 -172 171 -237 183 -112 21 -371 -142 -518 -326 -52 -65 -91 -123
-165 -244 -152 -250 -300 -351 -502 -344 l-83 3 35 20 c76 43 187 86 244 95
38 6 76 20 100 37 130 91 436 642 436 783 0 16 -9 36 -22 48 -83 72 -142 132
-136 137 8 9 44 -10 93 -50 76 -61 266 -111 394 -103 71 4 81 19 59 90 -9 29
-20 76 -23 103 l-6 50 46 -90 c70 -136 101 -172 199 -236 87 -57 208 -101 282
-102 50 -1 70 5 110 28 58 34 104 80 104 105 0 10 7 23 15 30 22 18 19 38 -15
90 -46 71 -123 134 -231 186 -91 45 -139 104 -139 172 0 47 32 77 100 96 74
21 91 45 65 95 -9 18 -29 37 -45 43 -21 7 -31 18 -36 41 -8 41 -19 54 -73 89
-42 26 -51 28 -150 27 -59 -1 -169 -7 -246 -15z m35 -1289 c0 -8 -13 -21 -29
-29 -35 -18 -158 -149 -200 -213 -18 -27 -29 -54 -26 -63 4 -8 9 -28 12 -45
l6 -30 -25 23 c-13 12 -30 22 -36 22 -6 0 -67 -53 -135 -117 -299 -287 -353
-335 -446 -397 -117 -78 -210 -120 -391 -175 -74 -23 -197 -62 -274 -87 -128
-41 -164 -48 -140 -25 18 18 203 91 408 161 115 39 230 82 255 95 51 25 158
95 200 129 86 70 318 309 468 481 96 110 190 213 209 229 56 46 144 71 144 41z
m-1421 -1357 c-5 -90 2 -99 83 -113 47 -7 57 -23 21 -30 -15 -4 -39 -8 -51
-11 -51 -10 -98 -98 -109 -206 l-5 -54 58 -18 c35 -11 100 -21 159 -23 135 -5
141 -7 148 -42 4 -19 41 -67 103 -132 53 -56 114 -129 135 -161 40 -62 67
-153 55 -185 -7 -17 -8 -17 -22 1 -8 11 -14 34 -14 50 -1 62 -83 198 -172 282
-112 107 -225 150 -418 161 -93 5 -110 3 -145 -15 -84 -42 -133 -114 -145
-208 -5 -36 -11 -68 -14 -71 -29 -29 -26 109 4 168 24 47 146 179 167 179 21
0 32 34 47 142 31 216 122 444 115 286z"/>
<path d="M3440 3843 c0 -47 -8 -88 -25 -133 -76 -206 -71 -182 -51 -233 19
-50 118 -157 170 -184 27 -14 32 -14 58 2 35 20 72 14 142 -23 50 -27 116
-102 116 -131 0 -18 -57 -108 -101 -158 -38 -44 -91 -156 -84 -176 9 -21 84
-82 113 -92 47 -14 90 4 156 65 82 77 109 136 109 240 0 62 -6 89 -33 153 -18
43 -46 95 -64 116 -41 50 -93 148 -83 158 5 4 12 1 16 -6 13 -20 44 -9 52 19
11 40 10 214 -2 269 -12 59 -59 127 -97 142 -15 6 -36 16 -47 23 -12 6 -85 12
-182 14 l-163 4 0 -69z"/>
<path d="M8739 3605 c-47 -26 -46 -66 4 -115 25 -25 186 -110 208 -110 22 0 2
75 -36 134 -30 48 -47 62 -91 82 -30 13 -56 24 -57 24 -1 -1 -14 -7 -28 -15z"/>
<path d="M3594 3228 c-34 -24 -95 -115 -113 -167 -10 -31 -9 -36 28 -80 67
-79 90 -97 109 -85 25 16 171 213 178 240 8 31 -29 82 -72 100 -48 20 -95 17
-130 -8z"/>
<path d="M8940 1981 c-46 -9 -73 -25 -122 -69 -74 -67 -97 -147 -78 -267 17
-107 80 -209 219 -357 89 -94 137 -121 217 -120 60 0 114 19 114 41 0 4 -33
37 -72 73 -48 43 -85 67 -108 72 -54 11 -201 88 -223 118 -13 18 -18 34 -13
52 6 25 99 138 222 268 l62 67 58 -41 c69 -48 92 -76 119 -143 31 -75 76 -135
154 -205 60 -52 72 -68 78 -103 6 -37 32 -77 51 -77 26 0 62 78 62 132 0 63
-96 195 -264 364 -141 141 -196 181 -267 194 -58 11 -156 11 -209 1z"/>
<path d="M9057 1687 c-51 -51 -102 -112 -115 -135 l-23 -42 30 -30 c16 -17 37
-30 46 -30 20 0 75 28 75 38 0 4 32 46 71 92 39 47 78 100 87 119 17 33 17 33
-13 57 -17 13 -38 24 -48 24 -10 0 -59 -42 -110 -93z"/>
<path d="M8259 650 c-29 -8 -218 -111 -261 -142 -19 -13 -28 -28 -28 -47 0
-40 35 -81 68 -81 28 0 163 60 265 118 54 30 57 34 57 71 0 63 -44 98 -101 81z"/>
<path d="M6876 515 c-28 -8 -66 -21 -85 -31 -20 -9 -47 -22 -61 -28 -40 -18
-37 -49 8 -84 54 -43 81 -52 128 -42 21 5 72 14 113 19 41 5 81 16 89 24 28
29 18 68 -31 114 -51 48 -74 52 -161 28z"/>
</g>
</svg>
