<?xml version="1.0" standalone="no"?>
<!DOCTYPE svg PUBLIC "-//W3C//DTD SVG 20010904//EN"
 "http://www.w3.org/TR/2001/REC-SVG-20010904/DTD/svg10.dtd">
<svg version="1.0" xmlns="http://www.w3.org/2000/svg"
 width="681.000000pt" height="670.000000pt" viewBox="0 0 681.000000 670.000000"
 preserveAspectRatio="xMidYMid meet">
<metadata>
Created by potrace 1.16, written by Peter Selinger 2001-2019
</metadata>
<g transform="translate(0.000000,670.000000) scale(0.100000,-0.100000)"
fill="#000000" stroke="none">
<path d="M5341 6606 c-23 -52 -72 -143 -107 -202 -73 -123 -83 -147 -59 -138
9 4 25 -2 38 -14 35 -31 70 -46 282 -116 123 -41 234 -71 288 -78 48 -7 87
-17 87 -23 -1 -5 -86 -64 -191 -130 -104 -66 -225 -143 -269 -171 -71 -46 -80
-49 -94 -36 -9 9 -18 14 -20 11 -5 -4 275 -428 348 -528 20 -27 36 -51 36 -55
0 -13 -27 -5 -159 48 -75 29 -144 56 -154 60 -15 5 -60 90 -117 221 -61 140
-165 352 -181 370 -18 19 -8 -14 26 -87 40 -87 186 -435 290 -693 85 -210 158
-376 187 -423 11 -18 18 -35 16 -38 -3 -2 -43 33 -89 78 -240 234 -395 375
-565 514 -135 112 -144 122 -153 185 -28 195 -64 423 -76 474 l-14 60 5 -60
c8 -86 38 -324 74 -585 17 -124 38 -281 46 -350 18 -145 30 -727 15 -695 -6
11 -31 70 -56 130 -95 223 -130 296 -272 565 -28 52 -81 156 -118 230 -38 74
-119 228 -182 341 -62 113 -113 210 -113 216 0 15 -37 46 -43 36 -3 -5 -54 -5
-114 0 -312 25 -1160 -38 -1392 -103 -40 -11 -76 -19 -78 -16 -3 2 11 40 31
84 38 84 42 97 26 87 -8 -5 -100 -189 -100 -201 0 -2 -23 -59 -51 -127 -57
-134 -63 -150 -137 -347 -95 -257 -272 -866 -332 -1142 -13 -60 -26 -108 -30
-108 -25 0 -67 334 -91 715 -6 99 -11 293 -11 430 -1 146 -4 235 -9 215 -4
-19 -9 -101 -10 -182 l-2 -147 -57 -75 c-31 -41 -76 -96 -98 -121 -23 -26 -71
-102 -108 -168 -160 -288 -196 -356 -226 -424 -17 -40 -35 -73 -39 -73 -23 0
-16 326 11 560 6 47 15 125 20 175 13 111 33 236 65 407 14 72 25 136 25 142
-1 27 -19 -26 -36 -104 l-17 -85 -83 -85 c-105 -108 -194 -216 -291 -352 -49
-69 -80 -105 -89 -101 -8 3 -14 -1 -14 -10 0 -8 -3 -29 -6 -46 -5 -24 -3 -31
10 -31 9 0 16 5 16 10 0 6 28 52 62 103 73 106 78 101 50 -43 -11 -52 -17 -99
-14 -104 5 -10 44 32 93 102 16 23 34 42 38 42 4 0 11 -30 15 -67 3 -38 19
-133 36 -212 l30 -144 -40 -34 c-22 -19 -40 -41 -40 -49 0 -22 16 -17 34 11
21 32 56 32 79 0 13 -19 17 -39 15 -81 l-3 -56 -32 31 c-34 33 -48 37 -58 21
-3 -5 -15 -15 -26 -21 -18 -9 -20 -8 -17 9 2 10 -1 18 -7 18 -14 -1 -10 -313
4 -346 9 -20 10 -13 6 35 -4 33 -7 105 -7 160 -1 91 0 100 18 104 10 2 25 8
32 14 9 7 20 3 40 -14 42 -37 51 -50 45 -65 -3 -8 -1 -14 4 -14 5 0 28 45 53
100 24 56 49 100 57 100 8 0 40 -13 71 -29 38 -20 89 -35 157 -46 55 -8 125
-20 156 -25 31 -5 72 -12 90 -14 33 -3 34 -4 54 -87 24 -99 43 -139 56 -118 5
8 16 46 25 86 l16 72 66 -6 c37 -3 69 -8 72 -10 8 -7 -24 -23 -48 -23 -14 0
-21 -4 -16 -11 4 -7 21 -9 47 -5 29 5 44 2 57 -9 9 -8 48 -26 86 -39 38 -13
103 -35 144 -49 41 -14 122 -40 180 -58 115 -36 112 -52 -3 -22 -100 25 -324
25 -424 0 -91 -24 -116 -45 -107 -95 11 -63 39 -115 95 -176 l53 -59 -42 5
c-28 2 -42 0 -42 -8 0 -17 52 -32 137 -40 57 -5 78 -3 105 11 38 19 147 39
338 62 155 18 201 19 238 4 31 -12 137 -1 137 14 0 6 -24 11 -52 13 -51 3 -53
4 -53 31 0 23 -9 34 -50 59 -28 17 -50 36 -50 42 0 14 1 14 82 -24 40 -19 84
-39 98 -46 14 -6 37 -18 52 -26 16 -9 65 -16 132 -19 149 -6 150 15 1 27 -20
2 -33 10 -40 26 -5 12 -15 22 -21 22 -6 0 -17 7 -24 15 -11 13 -7 15 26 15 22
0 48 3 59 6 18 5 85 103 85 124 0 5 8 24 18 42 32 57 33 90 6 137 -13 24 -24
46 -24 51 0 4 24 8 53 8 28 1 106 6 172 12 590 52 653 56 638 40 -16 -17 -148
-118 -317 -242 -76 -56 -133 -104 -127 -106 13 -4 113 66 271 193 209 168 222
176 298 186 117 15 119 10 28 -46 -36 -22 -63 -41 -61 -44 5 -4 130 75 149 94
10 11 31 15 161 35 28 4 96 16 153 26 89 15 105 16 113 3 12 -18 12 -321 0
-407 -5 -37 -17 -139 -26 -227 -9 -88 -20 -187 -25 -220 -9 -66 -5 -82 16 -65
13 12 64 163 64 192 0 8 36 52 80 99 111 116 169 205 177 269 5 41 1 61 -21
110 -44 98 -44 112 9 233 26 59 51 110 56 113 12 7 11 34 -1 34 -12 0 -47 -70
-94 -190 -55 -139 -65 -160 -65 -134 -1 11 5 40 13 65 7 24 28 94 46 154 45
153 50 164 72 176 28 15 42 -1 63 -69 20 -65 35 -88 35 -53 0 36 -30 129 -46
146 -9 8 -26 15 -40 15 -13 0 -24 2 -24 4 0 2 7 33 16 67 10 38 17 110 18 180
0 65 4 120 7 124 4 3 33 -10 65 -30 33 -19 64 -35 70 -35 6 0 19 -10 28 -22
15 -22 16 -20 14 47 -1 44 -10 95 -25 137 -40 117 -31 124 49 41 30 -32 104
-105 164 -163 61 -58 120 -120 133 -137 61 -88 42 -1 -41 187 -36 80 -86 201
-113 270 -26 69 -56 144 -66 167 -9 23 -15 44 -13 46 3 3 51 -13 107 -35 180
-69 201 -77 240 -84 20 -3 37 -3 37 1 0 4 -20 30 -45 57 -25 28 -88 116 -141
197 -53 80 -123 183 -155 229 -33 45 -59 86 -59 90 0 4 28 23 62 42 124 71
466 300 491 328 16 19 -1 27 -102 47 -47 9 -122 32 -166 50 -44 18 -154 62
-245 99 -91 37 -170 72 -177 79 -10 9 -5 23 19 62 36 56 168 314 168 327 0 27
-21 -4 -59 -86z m-1021 -1406 c22 -43 17 -59 -17 -60 -19 0 -16 -59 2 -67 9
-3 24 2 34 11 10 9 21 16 24 16 4 0 29 -44 55 -97 54 -107 68 -168 46 -198
-18 -24 -18 -35 0 -35 15 0 23 -80 32 -330 l6 -165 -28 -26 c-70 -64 -356
-100 -1104 -138 -350 -18 -778 -16 -797 3 -4 4 8 21 27 37 19 15 29 29 22 29
-7 0 -31 -17 -55 -39 l-42 -38 -100 7 c-122 9 -167 28 -188 79 -21 49 -30 141
-15 159 9 10 9 15 -2 22 -16 10 -31 295 -25 471 3 91 8 118 38 195 31 82 36
89 63 91 53 4 168 24 201 36 24 8 35 8 47 -2 12 -10 20 -9 40 4 35 24 51 10
26 -22 -31 -40 -15 -40 30 1 22 20 45 36 52 36 6 0 62 5 124 11 l113 12 39
-32 c40 -31 71 -37 107 -20 17 8 17 9 -5 4 -27 -4 -98 31 -86 43 9 8 189 20
421 28 105 3 191 6 192 7 1 1 159 4 352 6 l350 3 21 -42z m829 -232 c28 -25
51 -55 51 -65 0 -10 15 -71 34 -136 18 -64 31 -119 28 -122 -8 -8 -73 35 -118
77 l-42 40 -5 106 c-3 59 -9 118 -13 131 -9 31 2 26 65 -31z m-4072 -219 c-12
-102 -13 -106 -54 -155 -24 -27 -43 -52 -43 -56 0 -5 -6 -8 -14 -8 -12 0 -12
8 -1 53 7 28 16 76 20 105 5 40 17 67 52 113 24 34 46 59 48 57 2 -2 -2 -51
-8 -109z m3844 -846 c-49 -170 -102 -360 -117 -423 -45 -197 -52 -177 -23 70
6 47 13 189 16 315 5 219 10 254 35 239 4 -3 8 -18 8 -35 0 -37 20 -39 21 -1
0 15 4 35 8 46 9 23 135 118 139 105 2 -5 -37 -147 -87 -316z m-2618 12 c63 0
78 -3 82 -17 3 -9 40 -34 83 -56 78 -40 122 -57 422 -158 155 -52 190 -68 179
-78 -13 -13 -560 144 -769 220 -69 26 -136 48 -150 51 -14 3 -33 12 -42 21
-30 26 -10 35 56 26 33 -5 96 -9 139 -9z m906 -41 c17 -26 31 -51 31 -55 0
-21 -54 -118 -85 -153 -41 -46 -26 -48 -255 36 -315 114 -490 189 -490 207 0
4 173 9 384 10 l384 2 31 -47z m1799 -63 c38 -107 31 -133 -76 -274 -54 -72
-68 -67 -18 6 50 72 54 108 22 181 -28 63 -32 81 -16 71 6 -4 10 9 11 32 0 30
2 34 9 18 7 -17 9 -18 9 -2 1 16 22 59 28 54 1 -2 15 -40 31 -86z m-2649 -151
c10 -5 21 -22 24 -37 3 -15 12 -36 19 -46 20 -26 77 -2 85 35 6 33 36 37 83
13 50 -26 33 -65 -43 -101 -68 -31 -121 -31 -183 2 -65 34 -72 42 -76 88 -3
35 0 41 22 47 36 10 49 10 69 -1z m-193 -32 c9 -18 30 -47 48 -65 59 -59 88
-94 84 -98 -3 -3 -34 -8 -69 -12 -35 -3 -67 -11 -71 -17 -5 -8 -11 -7 -20 2
-10 10 -10 14 0 21 11 6 7 16 -17 43 -26 30 -61 94 -61 113 0 8 63 45 77 45 7
0 20 -15 29 -32z m571 -117 c35 -26 61 -50 58 -52 -5 -6 -266 -2 -272 4 -2 3
7 13 22 24 14 10 42 30 62 46 20 15 43 27 52 27 9 0 44 -22 78 -49z"/>
<path d="M3370 4882 c-106 -24 -222 -113 -291 -225 -18 -29 -56 -88 -85 -133
-76 -115 -76 -117 26 -163 220 -100 410 -93 527 20 57 54 70 101 52 192 -12
67 -31 108 -44 95 -3 -3 -2 -14 4 -25 21 -39 31 -134 19 -177 -15 -54 -37 -78
-109 -116 -115 -61 -272 -50 -439 31 l-82 39 28 48 c68 117 167 253 215 296
54 48 78 59 57 26 -20 -31 0 -36 30 -7 16 15 31 24 35 21 3 -3 26 3 50 15 24
11 51 21 60 21 9 0 17 5 17 11 0 8 -15 9 -47 5 -41 -6 -45 -5 -28 6 11 7 54
13 99 14 46 0 81 5 83 11 5 15 -101 13 -177 -5z"/>
<path d="M3120 4648 c-48 -65 -130 -197 -130 -209 0 -4 21 -21 46 -37 47 -31
155 -62 218 -62 l36 0 -54 53 c-79 76 -105 177 -71 272 17 47 17 45 8 45 -5 0
-28 -28 -53 -62z m14 -58 c-8 -37 19 -122 56 -177 27 -39 27 -41 8 -46 -27 -7
-119 29 -157 62 l-30 26 56 83 c31 45 60 82 64 82 5 0 6 -13 3 -30z"/>
<path d="M1040 6325 c-59 -24 -471 -153 -540 -170 -129 -31 -260 -76 -260 -90
0 -20 150 -157 232 -210 125 -83 425 -214 461 -202 7 2 -6 10 -28 17 -76 25
-227 100 -314 156 -107 70 -273 204 -268 217 1 5 34 18 72 28 75 20 110 32
310 107 72 27 182 68 245 92 63 23 122 49 130 56 18 17 5 17 -40 -1z"/>
<path d="M930 5573 c-104 -133 -221 -316 -291 -455 -36 -71 -159 -362 -159
-376 0 -2 14 -2 31 2 47 9 173 82 267 154 46 35 86 62 88 59 5 -5 -25 -244
-36 -287 -6 -19 -10 -46 -10 -60 1 -90 59 188 62 298 2 56 6 73 19 77 22 7 64
53 56 62 -4 4 -21 -3 -37 -16 -46 -34 -392 -242 -396 -238 -5 5 77 200 121
287 55 110 138 249 224 380 42 63 80 121 85 128 14 22 -2 12 -24 -15z"/>
<path d="M1321 4048 c7 -13 22 -36 34 -53 12 -16 45 -97 74 -180 29 -82 66
-186 82 -230 15 -44 28 -90 29 -101 0 -38 118 -379 127 -370 3 2 -20 85 -51
183 -31 98 -56 185 -56 193 0 8 -15 58 -34 110 -18 52 -54 156 -81 230 -26 75
-63 158 -83 188 -35 52 -64 72 -41 30z"/>
<path d="M5126 3928 c-16 -135 -30 -209 -62 -338 -8 -30 -14 -62 -14 -71 0 -9
-7 -23 -16 -30 -9 -7 -35 -54 -59 -104 -39 -80 -136 -236 -171 -274 -11 -12
-17 -13 -38 -2 -42 23 -53 9 -75 -96 -43 -197 -88 -353 -103 -353 -4 0 -30 16
-56 35 -60 42 -189 107 -259 130 -56 18 -62 35 -12 35 16 0 29 5 29 10 0 19
-57 10 -85 -14 -31 -27 -30 -27 45 -51 128 -41 330 -153 330 -183 0 -31 -63
-218 -97 -287 -76 -156 -175 -308 -397 -605 -131 -177 -298 -356 -340 -365
-11 -2 -88 -21 -171 -42 -128 -32 -166 -37 -260 -37 -167 0 -354 44 -542 130
-17 8 -35 14 -40 14 -4 0 -24 11 -44 24 -29 20 -41 40 -73 127 -56 153 -65
175 -112 277 -24 51 -44 102 -44 114 0 11 -10 53 -22 94 -27 95 -26 97 117
238 60 60 97 100 80 89 -50 -35 -167 -145 -196 -187 l-28 -38 -25 55 c-13 30
-28 57 -33 60 -6 4 -49 13 -96 21 -79 14 -90 14 -132 -2 l-47 -17 -46 53 c-43
48 -51 53 -89 54 -24 0 -40 4 -37 9 3 5 10 7 15 4 20 -13 7 19 -17 42 -21 19
-25 30 -20 55 5 25 3 29 -10 24 -12 -4 -14 -1 -9 14 3 11 -3 40 -14 66 -12 26
-21 53 -21 61 0 7 -9 32 -21 54 -11 23 -18 47 -15 54 3 8 -8 31 -23 52 -39 54
-108 75 -218 66 l-82 -6 -18 32 c-10 17 -33 57 -52 88 -18 33 -61 82 -97 113
-34 30 -63 60 -64 67 0 6 -14 35 -32 63 -17 28 -46 94 -63 147 -18 53 -35 91
-38 86 -9 -14 20 -118 49 -181 13 -29 24 -55 24 -57 0 -16 72 -119 117 -167
l53 -56 -16 -49 c-34 -109 -42 -141 -48 -193 -6 -50 -36 -165 -86 -330 -19
-64 -94 -368 -124 -507 -9 -39 -19 -107 -22 -149 -4 -60 -13 -93 -39 -143 -80
-160 -181 -405 -266 -644 -11 -32 -25 -44 -89 -79 -195 -106 -417 -320 -604
-582 l-56 -78 0 -134 0 -134 1746 0 c1573 0 1745 2 1734 15 -22 26 3 40 34 20
14 -10 26 -21 26 -26 0 -5 61 -9 135 -9 93 0 134 3 132 11 -2 10 166 170 228
216 17 12 25 22 19 22 -14 1 -95 -62 -197 -152 l-77 -69 -34 30 c-19 16 -48
38 -65 48 -17 10 -31 24 -31 30 0 15 201 209 274 264 31 23 56 47 56 52 0 10
-80 -42 -99 -66 -20 -23 -50 -20 -62 8 -10 21 -6 28 40 71 64 60 58 73 -8 17
-27 -23 -54 -42 -59 -42 -13 0 -52 62 -52 82 0 8 27 34 61 59 33 24 56 45 50
47 -5 2 -35 -15 -66 -38 -37 -27 -62 -39 -73 -35 -22 8 -26 5 -26 -21 -1 -21
-164 -184 -185 -184 -6 0 -20 18 -31 39 l-20 39 114 106 c62 58 116 106 120
106 3 0 6 -7 6 -16 0 -8 5 -12 10 -9 6 3 10 17 10 30 0 16 15 36 47 62 82 68
108 92 96 93 -7 0 -38 -21 -68 -46 -31 -25 -58 -44 -61 -42 -4 5 21 196 29
218 3 8 8 27 11 43 4 15 10 27 14 27 4 0 18 -24 31 -52 12 -29 34 -79 49 -110
14 -31 43 -74 64 -95 35 -34 38 -42 33 -75 -9 -49 14 -90 83 -155 l56 -51 -19
-44 c-30 -68 -45 -88 -74 -95 -14 -3 -66 -40 -116 -81 -49 -42 -105 -84 -122
-95 -18 -10 -33 -23 -33 -28 0 -22 32 -4 113 61 83 67 100 74 76 29 -6 -11 -8
-25 -6 -32 2 -7 12 3 21 21 22 43 85 112 101 112 8 0 17 -10 21 -22 4 -13 17
-39 30 -58 20 -30 22 -41 15 -70 -5 -19 -12 -63 -15 -98 l-6 -62 146 0 c120 0
144 2 136 13 -9 10 -1 28 29 75 22 34 45 60 50 56 15 -9 10 -27 -26 -87 l-34
-57 82 0 c82 0 82 0 101 33 34 60 214 422 240 484 17 41 44 81 79 115 28 29
94 110 145 180 51 71 97 128 103 128 22 0 5 -40 -47 -105 -135 -171 -201 -249
-220 -262 -13 -8 -25 -30 -29 -51 -6 -33 -187 -407 -237 -489 l-20 -33 849 0
848 1 -28 24 c-15 14 -49 51 -75 82 -26 32 -85 98 -132 147 -46 48 -91 98 -99
110 -8 11 -20 24 -25 28 -6 3 -24 18 -41 33 -16 15 -61 52 -100 83 -38 31 -87
71 -107 88 -20 18 -99 64 -175 103 -147 75 -141 69 -315 267 -18 20 -17 22 38
95 31 41 95 118 142 172 70 81 87 107 94 145 5 26 13 67 17 92 5 25 13 59 19
76 9 29 5 38 -58 130 -75 110 -98 126 -155 106 -27 -10 -38 -10 -55 0 -19 11
-21 19 -16 60 5 46 4 47 -55 106 -32 33 -59 67 -59 75 0 9 -18 30 -41 48 l-41
32 -33 -17 c-18 -10 -38 -15 -44 -12 -6 4 -11 36 -11 71 0 57 -3 66 -26 84
-15 12 -32 21 -38 21 -6 0 -34 16 -63 36 l-52 36 -28 -20 c-63 -43 -84 -35
-97 40 -4 25 -17 45 -37 61 -30 23 -31 25 -16 53 18 34 47 128 53 167 2 15 12
44 23 65 11 21 30 76 42 123 12 46 30 116 41 154 11 39 22 80 25 93 3 14 11
21 19 18 8 -3 20 -3 28 0 21 8 154 206 194 289 19 39 42 79 53 91 21 22 38 99
89 389 31 174 36 225 22 225 -4 0 -16 -64 -26 -142z m-3712 -1001 c25 -41 57
-80 71 -87 14 -7 25 -18 25 -23 0 -5 -28 -44 -62 -87 -35 -42 -73 -90 -84
-106 -12 -16 -24 -27 -27 -24 -2 3 -1 48 3 100 5 52 10 138 11 190 2 89 5 110
14 110 2 0 24 -33 49 -73z m248 -103 c3 -3 -9 -28 -28 -56 -33 -48 -43 -78
-26 -78 4 0 14 16 21 35 7 19 24 48 37 65 24 28 27 29 54 15 16 -8 31 -23 33
-32 29 -103 30 -121 14 -145 -10 -13 -35 -48 -57 -78 -39 -54 -51 -85 -29 -78
6 2 27 34 46 71 19 37 39 67 44 67 5 0 9 -20 9 -44 0 -32 -7 -53 -27 -79 -16
-20 -36 -47 -45 -59 l-17 -23 -23 27 c-13 14 -38 29 -55 33 l-33 7 -2 129 c-4
240 -8 213 32 220 19 4 38 7 41 8 3 0 8 -2 11 -5z m2764 -680 c-4 -9 -25 -78
-47 -153 -39 -129 -89 -281 -96 -290 -8 -10 -13 10 -18 79 -3 41 -8 86 -11 98
-3 17 13 49 61 121 36 53 65 101 65 107 0 15 30 54 42 54 5 0 7 -7 4 -16z
m-266 -431 c-18 -43 -53 -122 -76 -175 -24 -54 -44 -102 -44 -108 0 -5 -6 -10
-13 -10 -7 0 -19 21 -26 48 -8 26 -16 52 -18 57 -5 15 195 280 205 271 3 -3
-10 -41 -28 -83z m-2790 32 c11 -25 40 -77 65 -116 26 -39 44 -73 41 -76 -3
-3 -39 -5 -80 -4 l-74 2 -17 -35 c-19 -40 -38 -48 -30 -13 2 12 16 70 30 129
14 59 25 116 25 126 0 17 8 32 17 32 2 0 12 -20 23 -45z m-184 -476 c-41 -85
-89 -175 -105 -201 l-31 -48 -58 0 c-32 0 -92 -9 -133 -20 -81 -21 -108 -25
-93 -12 17 16 148 51 214 58 l65 6 38 58 c20 32 37 61 37 65 0 19 135 278 138
264 1 -9 -31 -85 -72 -170z m2639 -10 c-20 -63 -43 -145 -53 -183 -16 -65 -22
-74 -87 -135 -38 -36 -133 -128 -211 -203 -79 -76 -148 -138 -156 -138 -7 0
-28 21 -46 48 -17 26 -39 57 -47 68 -15 21 -9 28 167 197 344 331 433 418 422
415 -14 -4 -324 -290 -489 -450 -67 -65 -126 -118 -132 -118 -6 0 -18 11 -27
24 -15 24 -15 26 31 63 26 21 113 98 193 172 80 74 176 161 215 194 38 33 72
70 75 81 4 14 22 25 66 38 33 10 69 27 79 38 36 39 36 3 0 -111z m-200 -2
c-27 -23 -97 -85 -155 -137 -143 -129 -246 -219 -298 -260 l-43 -34 -29 30
-30 29 108 91 c59 51 157 137 219 191 106 94 116 101 180 115 100 23 103 21
48 -25z m-497 13 c36 0 26 -17 -40 -61 -35 -23 -94 -64 -131 -92 -65 -47 -69
-49 -82 -31 -22 29 -18 40 21 64 19 13 65 47 102 77 48 39 72 53 87 49 11 -3
30 -6 43 -6z m112 -14 c0 -4 -159 -132 -237 -191 -29 -21 -53 -45 -53 -52 0
-7 2 -13 5 -13 6 0 155 117 240 190 67 56 114 75 129 51 6 -8 -221 -206 -281
-245 -38 -25 -47 -54 -10 -35 27 14 94 67 167 134 141 127 176 155 195 155 11
0 31 3 44 7 15 4 22 2 20 -5 -3 -9 -183 -166 -355 -310 l-52 -43 -56 32 c-41
22 -63 43 -77 71 -12 23 -17 44 -12 49 5 5 69 53 143 108 92 69 144 100 163
101 15 0 27 -2 27 -4z m-1955 -241 c196 -30 354 -68 510 -122 88 -31 144 -54
300 -123 22 -10 105 -43 185 -73 221 -83 587 -270 629 -321 23 -27 2 -18 -103
43 -205 119 -403 209 -905 407 -286 114 -387 140 -676 174 -67 8 -97 13 -123
19 -2 1 0 6 3 11 7 11 20 9 180 -15z m2444 -122 c-10 -58 -14 -64 -77 -120
-90 -79 -246 -226 -250 -235 -11 -26 29 7 153 122 77 71 144 130 148 130 4 0
5 -24 1 -52 -5 -42 -12 -59 -37 -82 -18 -16 -77 -70 -131 -119 l-99 -91 -16
24 c-9 14 -31 41 -48 61 -18 20 -33 39 -33 42 0 6 366 368 383 379 17 10 18 7
6 -59z m5 -431 c14 -21 26 -43 26 -49 0 -12 -183 -163 -197 -163 -8 0 -43 56
-43 69 0 9 172 181 181 181 4 0 18 -17 33 -38z m71 -99 l18 -27 -98 -93 c-54
-51 -102 -93 -106 -93 -11 0 -41 59 -37 71 4 11 189 168 199 168 4 1 15 -11
24 -26z"/>
<path d="M1654 3888 c13 -145 27 -284 34 -350 6 -48 5 -69 -3 -72 -22 -8 5
-408 28 -423 7 -4 8 8 3 33 -4 21 -9 90 -13 152 -4 87 -3 112 7 112 10 0 11
14 6 58 -10 80 -11 81 -32 335 -10 125 -23 227 -28 227 -5 0 -6 -31 -2 -72z"/>
<path d="M4385 3953 c-11 -3 -67 -21 -124 -39 -119 -39 -114 -38 -105 -23 10
17 -26 -4 -171 -99 -177 -116 -305 -192 -322 -192 -7 0 -31 9 -53 20 -36 18
-39 23 -45 74 -4 30 -4 77 0 105 4 31 3 51 -3 51 -25 0 -24 -218 2 -239 6 -5
26 -13 45 -18 49 -13 50 -31 2 -51 -45 -19 -54 -45 -20 -63 17 -8 20 -17 15
-40 -6 -32 -4 -34 24 -19 30 16 33 -6 4 -28 -15 -10 -23 -22 -18 -25 5 -3 39
17 74 44 71 53 110 66 70 24 -13 -14 -31 -25 -40 -25 -9 0 -23 -12 -30 -26
-12 -21 -12 -27 -1 -34 8 -4 10 -13 6 -19 -5 -9 -10 -9 -21 0 -15 12 -18 4
-15 -32 1 -9 -5 -19 -14 -22 -19 -8 -20 -33 0 -41 9 -3 20 4 29 22 8 15 23 36
35 46 12 11 21 25 21 32 0 7 5 14 11 16 5 2 12 16 13 32 4 32 25 50 42 35 11
-9 203 6 213 17 2 2 10 -1 17 -6 12 -11 97 4 119 20 6 4 33 13 60 19 28 7 61
19 75 27 25 15 25 15 -10 8 -19 -4 -48 -12 -65 -20 -44 -19 -131 -44 -152 -44
-31 0 39 37 84 45 23 3 49 13 60 21 17 15 16 15 -7 9 -14 -4 -36 -9 -50 -12
l-25 -5 25 24 c30 30 174 68 255 68 47 0 57 3 71 25 9 14 21 25 28 25 11 0 42
65 75 160 10 30 27 72 36 94 11 27 13 42 6 49 -11 11 -191 19 -226 10z m81
-75 c5 -7 7 -29 7 -48 -2 -34 -1 -34 9 8 16 64 32 53 25 -18 -7 -63 -41 -143
-73 -171 -19 -16 -202 -55 -212 -44 -7 6 -6 7 44 38 45 28 66 64 85 149 12 51
17 58 54 76 48 25 52 25 61 10z m-133 -42 c3 -8 -10 -36 -29 -63 -19 -26 -34
-51 -34 -56 0 -4 -17 -24 -37 -45 -34 -34 -42 -37 -93 -37 -57 -1 -97 13 -119
39 -11 13 -9 21 13 50 32 43 59 52 88 32 44 -31 91 -17 99 29 5 22 63 65 89
65 10 0 20 -6 23 -14z"/>
<path d="M1230 3925 c0 -8 13 -29 28 -47 55 -64 74 -98 69 -121 -3 -12 -13
-47 -22 -77 -20 -69 -35 -287 -26 -359 7 -49 13 -60 58 -100 43 -40 199 -141
217 -141 3 0 6 6 6 14 0 8 7 17 15 20 12 4 13 11 7 23 -5 10 -12 35 -16 56 -6
30 -24 54 -87 116 -52 51 -79 85 -79 100 0 21 4 43 31 163 8 34 7 52 -2 70 -7
12 -17 32 -23 43 -5 11 -25 49 -44 85 -37 70 -109 170 -123 170 -5 0 -9 -7 -9
-15z m158 -245 c29 -46 31 -55 22 -93 -5 -23 -14 -78 -20 -121 -10 -77 -9 -81
14 -117 14 -21 50 -57 80 -81 46 -37 56 -50 65 -92 13 -58 9 -66 -22 -39 -12
11 -56 41 -97 68 -41 26 -90 61 -107 78 -29 27 -33 37 -33 83 0 135 37 364 59
364 5 0 22 -23 39 -50z"/>
<path d="M3035 3408 c-10 -6 -69 -23 -130 -38 -60 -15 -119 -30 -131 -33 -12
-4 -28 -1 -40 8 -18 14 -17 15 10 9 22 -5 27 -4 21 5 -9 16 -46 10 -180 -29
-93 -28 -280 -54 -298 -43 -5 3 -24 2 -44 -2 -25 -4 -32 -10 -25 -17 7 -7 45
-8 109 -4 54 3 140 6 191 6 94 0 169 15 372 74 l84 25 55 -47 c52 -45 58 -47
107 -44 30 2 55 -1 58 -7 4 -7 -1 -11 -13 -11 -12 0 -21 -7 -21 -15 0 -11 11
-15 41 -15 35 0 40 3 34 18 -4 9 -10 26 -13 37 -7 30 -21 44 -86 92 -62 46
-70 49 -101 31z"/>
<path d="M3595 2586 c-32 -11 -188 -123 -244 -175 -34 -32 -51 -39 -51 -21 0
5 34 35 75 65 41 31 75 61 75 67 0 11 -25 -4 -114 -69 -61 -45 -76 -51 -76
-30 0 7 20 23 45 35 25 12 45 28 45 35 0 21 -128 90 -156 83 -32 -8 -31 -26 2
-26 35 0 21 -16 -21 -24 -19 -4 -35 -11 -35 -16 0 -14 70 -81 130 -124 30 -22
75 -44 100 -49 25 -5 50 -14 57 -19 7 -6 14 -5 18 2 4 6 14 9 23 5 20 -7 113
82 105 101 -4 12 19 36 76 81 13 10 14 14 2 22 -10 6 -11 13 -2 29 15 29 -12
43 -54 28z"/>
<path d="M3655 2170 c-60 -15 -137 -33 -170 -40 -33 -7 -98 -20 -145 -30 -93
-19 -370 -115 -450 -155 -27 -14 -50 -32 -50 -40 0 -19 23 -19 61 0 23 13 50
14 132 9 76 -4 141 -1 257 15 85 11 182 21 215 21 33 0 89 7 125 14 46 10 69
11 78 3 17 -14 131 -12 145 2 6 6 19 11 30 11 16 0 18 5 12 33 -22 99 -79 189
-118 186 -7 0 -61 -13 -122 -29z m69 -65 c17 -44 -31 -67 -189 -89 -16 -3 -57
-9 -90 -15 -104 -17 -228 -31 -272 -31 -44 0 -93 14 -93 27 0 14 137 54 239
69 53 9 146 24 206 34 142 23 191 25 199 5z"/>
<path d="M3705 1870 c-40 -15 -132 -40 -148 -40 -9 0 -20 -6 -24 -13 -8 -13
-166 -47 -222 -47 -27 0 -53 -22 -40 -35 7 -6 173 15 198 26 16 6 27 6 36 -1
14 -12 58 1 70 20 4 7 27 20 52 31 76 33 99 21 37 -19 -35 -23 -41 -44 -12
-50 8 -2 53 15 99 37 46 23 90 41 97 41 19 0 14 18 -9 31 -15 7 -24 8 -32 0
-7 -7 -21 -4 -46 8 -23 12 -43 16 -56 11z"/>
</g>
</svg>
